<svg width="48" height="48" version="1.1" xmlns="http://www.w3.org/2000/svg">
 <circle cx="24" cy="25" r="20" style="opacity:.2"/>
 <circle cx="24" cy="24" r="20" style="fill:#e4e4e4"/>
 <path d="M 24,4 A 20,20 0 0 0 4,24 20,20 0 0 0 4.0215,24.582 20,20 0 0 1 24,5 20,20 0 0 1 43.979,24.418 20,20 0 0 0 44,24 20,20 0 0 0 24,4 Z" style="fill:#ffffff;opacity:.2"/>
 <path d="m24 17c-1.165055 0-2 1-2 1l-13 12.857422c-0.4714047 0.471405-0.328091 1.629003 0 2 0.9461436 1.069874 2.292914 0.707127 3 0l8-8s-5.7e-5 -0.08225 0-1c0-2.209139 1.790861-4 4-4s4 1.790861 4 4c5.7e-5 0.91771 0 1 0 1l8 8c0.707086 0.707127 2.053856 1.069874 3 0 0.328091-0.370997 0.471405-1.528595 0-2l-13-12.857422s-0.834945-1-2-1zm0 5.357422c-0.828427 0-1.5 0.671573-1.5 1.5s0.671573 1.5 1.5 1.5 1.5-0.671573 1.5-1.5-0.671573-1.5-1.5-1.5zm-2.828125 4.328125-3.171875 3.171875 3 2s1.620765-2 3-2 3 2 3 2l3-2-3.171875-3.171875c-0.750022 0.750182-1.76732 1.171715-2.828125 1.171875-1.060805-1.6e-4 -2.078103-0.421693-2.828125-1.171875z" style="opacity:.3"/>
 <path d="m24 16c-1.165055 0-2 1-2 1l-13 12.857422c-0.4714047 0.471405-0.328091 1.629003 0 2 0.9461436 1.069874 2.292914 0.707127 3 0l8-8s-5.7e-5 -0.08225 0-1c0-2.209139 1.790861-4 4-4s4 1.790861 4 4c5.7e-5 0.91771 0 1 0 1l8 8c0.707086 0.707127 2.053856 1.069874 3 0 0.328091-0.370997 0.471405-1.528595 0-2l-13-12.857422s-0.834945-1-2-1zm0 5.357422c-0.828427 0-1.5 0.671573-1.5 1.5s0.671573 1.5 1.5 1.5 1.5-0.671573 1.5-1.5-0.671573-1.5-1.5-1.5zm-2.828125 4.328125-3.171875 3.171875 3 2s1.620765-2 3-2 3 2 3 2l3-2-3.171875-3.171875c-0.750022 0.750182-1.76732 1.171715-2.828125 1.171875-1.060805-1.6e-4 -2.078103-0.421693-2.828125-1.171875z" style="fill:#333333"/>
</svg>
