<svg width="48" height="48" version="1" xmlns="http://www.w3.org/2000/svg">
 <path d="m19 5c-0.745356 0-1.472954 0.472954-2 1l-12 12c-0.710642 0.710638-1.0000001 1.254644-1.0000001 2v22.999999c0 0.94281 1.057191 2.000001 2 2.000001h23c0.745356 0 1.472955-0.472952 2-1.000001l5.999999-6 6-5.999999c0.710642-0.71064 1-1.254644 1-2v-23c0-0.942809-1.05719-2-2-2z" style="fill:#1a1a1a;opacity:.2"/>
 <path d="m29 44h-23c-0.942809 0-2-1.057195-2-2.000003v-22.999998c0-0.745356 0.2893581-1.28936 1.0000001-1.999998l6.0000019-6.000001 25.999998 26-6 6c-0.527046 0.527048-1.254644 1-2 1z" style="fill:#2086e7"/>
 <path d="m19 4.0000005h23c0.94281 0 2 1.057194 2 2.000003v22.999996c0 0.745356-0.289359 1.289359-1 2l-6 6-25.999999-26 5.999999-6c0.527046-0.5270463 1.254644-1 2-0.9999995z" style="fill:#fe4b71"/>
 <path d="m19 4.0000005c-0.745356 0-1.472954 0.4729537-2 1l-5.999999 5.9999995 0.5 0.5 5.499999-5.4999995c0.527046-0.527046 1.254644-1 2-1h23c0.94281 0 2 1.057191 2 2v-1c0-0.942809-1.05719-2-2-2z" style="fill:#ffffff;opacity:.2"/>
 <path d="m11.000001 11.000001h26v26h-26z" style="fill:#3f3f3f"/>
 <path d="m14.000001 32h10v2h-10z" style="opacity:.2"/>
 <path d="m14.000001 31h10v2h-10z" style="fill:#ffffff"/>
 <path d="m24 15h2v7c0 1.53668-1.48415 3.000007-3 3l-2-1e-5v-2l2 1e-6c0.491306 1e-6 1-0.479045 1-0.999991z" style="opacity:.2"/>
 <path d="m24 14h2v7c0 1.53668-1.48415 3.000007-3 3l-2-1e-5v-2l2 1e-6c0.491306 1e-6 1-0.479045 1-0.999991z" style="fill:#ffffff"/>
 <path d="m14.000001 15 5.999999 1.7e-5v2h-2v5.999983h2v2h-5.999999v-2h1.999999v-6h-1.999999z" style="opacity:.2"/>
 <path d="m14.000001 14 5.999999 1.7e-5v2h-2v5.999983h2v2h-5.999999v-2h1.999999v-6h-1.999999z" style="fill:#ffffff"/>
 <path d="m11 11-6 6c-0.710642 0.710638-1 1.254644-1 2v1c0-0.745356 0.289358-1.289362 1-2l6-6v-1z" style="fill:#ffffff;opacity:.2"/>
</svg>
