<svg width="48" height="48" version="1.1" xmlns="http://www.w3.org/2000/svg">
 <rect x="4" y="5" width="40" height="40" rx="3" ry="3" style="opacity:.2"/>
 <rect x="4" y="4" width="40" height="40" rx="3" ry="3" style="fill:#37528c"/>
 <path d="m21.642578 10c-1.615737 0-3.005185 0.365731-3.501953 3.701172l-0.640625 4.298828 3.126953 1h-4.324219c-0.79425 0-2.754884 0.534189-3.076172 2.691406l-2.726562 18.308594h7l2.382812-16h3.041016c0.04808 0 0.09232-4.51e-4 0.134766-2e-3 0.04172-0.0015 0.08219-0.0039 0.11914-0.0098 0.03756-6e-3 0.07399-0.01578 0.107422-0.0293 0.05-0.02031 0.09586-0.05004 0.138672-0.0957 0.02864-0.03042 0.05564-0.06783 0.08203-0.113281 0.06574-0.11366 0.125451-0.279147 0.185547-0.519531l0.152345-1.013591 0.777344-5.216797h5.773437l-0.894531 6h6.5l1.46875-9.673828c0.01634-0.107664 0.02148-0.216903 0.02148-0.326172 2e-6 -1.40482-1.175676-3-3.078125-3z" style="fill-rule:evenodd;opacity:.2"/>
 <path d="m21.643208 9c-1.615737 0-3.006178 0.3656559-3.502946 3.701097l-0.640262 4.298903 3.12766 1-2.62766 5h4.923081c0.384615 0 0.576923 0 0.769231-0.769231l0.927983-6.230769h5.773322l-0.893617 6h6.5l1.468422-9.673953c0.01634-0.107664 0.02094-0.216778 0.02094-0.326047 2e-6 -1.40482-1.174472-3-3.076921-3z" style="fill-rule:evenodd;fill:#ffad33"/>
 <path d="m20.626953 18-2.626953 5h4.923828c0.384615 0 0.57527-3e-4 0.767578-0.769531l0.152344-1.013672-3.216797-3.216797z" style="fill-rule:evenodd;fill:#966214"/>
 <path d="m13.226678 20.692308-2.726678 18.307692h7l3.12766-21h-4.324059c-0.79425 0-2.755636 0.535091-3.076923 2.692308z" style="fill-rule:evenodd;fill:#ffad33"/>
 <path d="m16.302734 18c-0.79425 0-2.754884 0.534189-3.076172 2.691406l-2.726562 18.308594h0.648438l2.578124-17.308594c0.321288-2.157217 2.281922-2.691406 3.076172-2.691406h3.675782l0.148437-1h-4.324219z" style="fill-rule:evenodd;fill:#ffffff;opacity:.2"/>
 <path d="m7 4c-1.662 0-3 1.338-3 3v1c0-1.662 1.338-3 3-3h34c1.662 0 3 1.338 3 3v-1c0-1.662-1.338-3-3-3h-34z" style="fill:#ffffff;opacity:.1"/>
</svg>
