<svg width="48" height="48" version="1.1" xmlns="http://www.w3.org/2000/svg">
 <path d="m29.971175 39.284576 0.979413-0.204693c1.222557-0.255509 2.318399 0.121978 2.457044 0.846384l0.578071 3.020359c0.138645 0.724406-0.733963 1.513292-1.95652 1.768801l-0.979413 0.204693c-1.222557 0.255509-2.318398-0.121979-2.457044-0.846385l-0.57807-3.020359c-0.138646-0.724406 0.733962-1.513291 1.956519-1.7688z" style="opacity:.2"/>
 <path d="m29.971176 38.284574 0.979412-0.204693c1.222557-0.255509 2.318399 0.121979 2.457044 0.846385l0.578071 3.020358c0.138645 0.724406-0.733963 1.513292-1.95652 1.768801l-0.979412 0.204693c-1.222557 0.255509-2.318398-0.121979-2.457043-0.846385l-0.578071-3.020358c-0.138645-0.724407 0.733962-1.513292 1.956519-1.768801z" style="fill:#4f4f4f"/>
 <path d="m34.987568 27.562379 1.251305-0.47722c0.90119-0.343694 2.00542 0.383449 2.475853 1.630363l1.0756 2.850951c0.470433 1.246915 0.123653 2.527442-0.777537 2.871136l-1.251305 0.47722c-0.901189 0.343694-2.00542-0.383448-2.475853-1.630364l-1.075601-2.850951c-0.470433-1.246914-0.123651-2.527441 0.777538-2.871135z" style="opacity:.2"/>
 <path d="m34.98757 26.56238 1.251305-0.477221c0.90119-0.343694 2.005419 0.383448 2.475853 1.630364l1.0756 2.85095c0.470433 1.246916 0.123652 2.527441-0.777537 2.871135l-1.251306 0.477221c-0.901188 0.343694-2.005419-0.383448-2.475852-1.630363l-1.075601-2.850951c-0.470433-1.246915-0.123651-2.527441 0.777538-2.871135z" style="fill:#4f4f4f"/>
 <path d="m17.333512 23h13.333334c2.954667 0 5.333333 3.822857 5.333333 8.571429v2.857142c0 4.748572-2.378666 8.571429-5.333333 8.571429h-13.333334c-2.954666 0-5.333333-3.822857-5.333333-8.571429v-2.857142c0-4.748572 2.378667-8.571429 5.333333-8.571429z" style="opacity:.2"/>
 <path d="m17.333512 22h13.333334c2.954667 0 5.333333 3.822857 5.333333 8.571429v2.857142c0 4.748572-2.378666 8.571429-5.333333 8.571429h-13.333334c-2.954666 0-5.333333-3.822857-5.333333-8.571429v-2.857142c0-4.748572 2.378667-8.571429 5.333333-8.571429z" style="fill:#cccccc"/>
 <path d="m11.667779 27.073047 1.282448 0.442899c0.923619 0.318977 1.309794 1.5876 0.865862 2.844447l-1.015008 2.873657c-0.443932 1.256847-1.544884 2.011882-2.468503 1.692906l-1.2824478-0.4429c-0.9236191-0.318976-1.3097935-1.587598-0.8658615-2.844445l1.015007-2.873658c0.443932-1.256847 1.5448843-2.011883 2.4685033-1.692906z" style="opacity:.2"/>
 <path d="m11.667779 26.073048 1.282448 0.4429c0.923619 0.318976 1.309794 1.587598 0.865862 2.844445l-1.015007 2.873658c-0.443932 1.256847-1.544885 2.011882-2.468504 1.692906l-1.2824476-0.4429c-0.9236181-0.318976-1.3097925-1.587599-0.8658605-2.844445l1.015007-2.873658c0.443932-1.256847 1.5448841-2.011882 2.4685021-1.692906z" style="fill:#4f4f4f"/>
 <path d="m17.013304 39.070132 0.986478 0.191909c1.231373 0.23955 2.117896 1.018929 1.987718 1.747484l-0.542766 3.037658c-0.130178 0.728556-1.2263 1.122231-2.457674 0.88268l-0.986477-0.191908c-1.231373-0.239551-2.117895-1.018929-1.987717-1.747484l0.542766-3.037659c0.130177-0.728555 1.226299-1.122231 2.457672-0.88268z" style="opacity:.2"/>
 <path d="m17.013304 38.070133 0.986476 0.191909c1.231374 0.23955 2.117896 1.018929 1.987719 1.747484l-0.542766 3.037658c-0.130178 0.728556-1.2263 1.122231-2.457674 0.88268l-0.986476-0.191908c-1.231374-0.239551-2.117896-1.018929-1.987719-1.747484l0.542766-3.037659c0.130178-0.728555 1.226301-1.122231 2.457674-0.88268z" style="fill:#4f4f4f"/>
 <path d="m39.222838 15c-0.496452 0.02591-0.938352 0.465906-1.070314 1.125l-0.11328 0.574218c-0.13106 0.654647 0.08314 1.322159 0.499994 1.667974l0.60552 1.664028c0.30074 0.829598 1.027704 1.195732 1.628906 0.820314l0.55469-0.347656c0.6012-0.37542 0.843706-1.342278 0.542966-2.171876l-0.746094-2.058594c-0.17474-0.482047-0.49363-0.807482-0.847656-0.921874-0.09008-0.06882-0.18694-0.119578-0.292968-0.15625l-0.410158-0.144532c-0.1171-0.04051-0.237-0.05677-0.35156-0.05078z" style="opacity:.2"/>
 <path d="m39.497823 14.45551-0.555222 0.346707c-0.601203 0.37542-0.843093 1.345524-0.542354 2.175121l0.745089 2.055347c0.300739 0.829597 1.026852 1.195234 1.628055 0.819814l0.555222-0.346708c0.601202-0.375419 0.843092-1.345523 0.542352-2.17512l-0.745089-2.055347c-0.300739-0.829597-1.026851-1.195234-1.628053-0.819814z" style="fill:#4f4f4f"/>
 <path d="m39.983878 14.193707-0.410205-0.141901c-0.624519-0.216037-1.258041 0.263101-1.420454 1.074301l-0.114966 0.57422c-0.162413 0.8112 0.209607 1.638182 0.834126 1.854219l0.410205 0.141901c0.624519 0.216038 1.258042-0.2631 1.420454-1.0743l0.114967-0.57422c0.162412-0.8112-0.209608-1.638182-0.834127-1.85422z" style="fill:#4f4f4f"/>
 <path d="m40.000179 17a16 12 0 0 1-16 12 16 12 0 0 1-16-12 16 12 0 0 1 16-12 16 12 0 0 1 16 12z" style="opacity:.2"/>
 <path d="m40.000179 16a16 12 0 0 1-16 12 16 12 0 0 1-16-12 16 12 0 0 1 16-12 16 12 0 0 1 16 12z" style="fill:#cccccc"/>
 <path d="M 24,4 A 16,12 0 0 0 8,16 16,12 0 0 0 8.0136719,16.498047 16,12 0 0 1 24,5 16,12 0 0 1 39.986328,16.498047 16,12 0 0 0 40,16 16,12 0 0 0 24,4 Z" style="fill:#ffffff;opacity:.2"/>
 <path d="m37 15a11.99991 9 0 0 1-11.99991 9 11.99991 9 0 0 1-11.999911-9 11.99991 9 0 0 1 11.999911-9 11.99991 9 0 0 1 11.99991 9z" style="fill:#4f4f4f"/>
 <path d="M 25,6 A 11.99991,9 0 0 0 13,15 11.99991,9 0 0 0 13.01953,15.503906 11.99991,9 0 0 1 25,7 11.99991,9 0 0 1 36.980469,15.503906 11.99991,9 0 0 0 37,15 11.99991,9 0 0 0 25,6 Z" style="opacity:.2"/>
 <path d="m21 13.75a1.75 2.75 0 0 1-1.75 2.75 1.75 2.75 0 0 1-1.75-2.75 1.75 2.75 0 0 1 1.75-2.75 1.75 2.75 0 0 1 1.75 2.75z" style="fill:#e6e6e6"/>
 <path d="m33.999821 13.75a1.75 2.75 0 0 1-1.75 2.75 1.75 2.75 0 0 1-1.75-2.75 1.75 2.75 0 0 1 1.75-2.75 1.75 2.75 0 0 1 1.75 2.75z" style="fill:#e6e6e6"/>
 <path d="m23.75 15c-0.4155 0-0.75 0.3345-0.75 0.75v0.5c0 0.4155 0.3345 0.75 0.75 0.75h1.25v1.25c0 0.4155 0.3345 0.75 0.75 0.75h0.5c0.4155 0 0.75-0.3345 0.75-0.75v-1.25h1.25c0.4155 0 0.75-0.3345 0.75-0.75v-0.5c0-0.4155-0.3345-0.75-0.75-0.75z" style="opacity:.2"/>
 <path d="m23.75 14h4.5c0.4155 0 0.75 0.3345 0.75 0.75v0.5c0 0.4155-0.3345 0.75-0.75 0.75h-4.5c-0.4155 0-0.75-0.3345-0.75-0.75v-0.5c0-0.4155 0.3345-0.75 0.75-0.75z" style="fill:#e6e6e6"/>
 <path d="m25.75 14h0.5c0.4155 0 0.75 0.3345 0.75 0.75v2.5c0 0.4155-0.3345 0.75-0.75 0.75h-0.5c-0.4155 0-0.75-0.3345-0.75-0.75v-2.5c0-0.4155 0.3345-0.75 0.75-0.75z" style="fill:#e6e6e6"/>
 <path d="m8.777523 15c-0.114566-6e-3 -0.2344654 0.01028-0.3515626 0.05078l-0.410156 0.144532c-0.1060214 0.03667-0.2028812 0.08742-0.292969 0.156249-0.3540322 0.114386-0.6729074 0.439825-0.8476562 0.921874l-0.7460936 2.058594c-0.3007392 0.829597-0.058234 1.796455 0.5429686 2.171875l0.5546874 0.347656c0.6012024 0.37542 1.3281674 0.0092 1.6289062-0.820312l0.605469-1.664062c0.416869-0.34581 0.6310692-1.013321 0.4999998-1.667969l-0.1132812-0.574217c-0.1319604-0.6591-0.5738622-1.099091-1.0703124-1.125z" style="opacity:.2"/>
 <path d="m8.5025317 14.455511 0.555222 0.346708c0.6012026 0.37542 0.8430919 1.345524 0.5423529 2.175121l-0.7450886 2.055348c-0.3007391 0.829597-1.0268506 1.195234-1.6280531 0.819814l-0.555222-0.346708c-0.6012017-0.375419-0.8430912-1.345523-0.5423521-2.17512l0.7450886-2.055348c0.300739-0.829597 1.0268506-1.195234 1.6280523-0.819815z" style="fill:#4f4f4f"/>
 <path d="m8.0164839 14.193707 0.4102048-0.141901c0.6245182-0.216038 1.2580403 0.263101 1.4204531 1.074301l0.1149661 0.57422c0.1624131 0.8112-0.2096072 1.638182-0.8341254 1.85422l-0.4102048 0.141901c-0.6245182 0.216037-1.2580403-0.263101-1.420453-1.074302l-0.1149661-0.574219c-0.1624128-0.8112 0.2096071-1.638183 0.8341253-1.85422z" style="fill:#4f4f4f"/>
</svg>
