<svg width="48" height="48" version="1.1" xmlns="http://www.w3.org/2000/svg">
 <rect x="4" y="9" width="40" height="33" rx="3" style="opacity:.2"/>
 <rect x="4" y="8" width="40" height="33" rx="3" style="fill:#4f4f4f"/>
 <path d="m4 25v13c0 1.662 1.338 3 3 3h34c1.662 0 3-1.338 3-3v-13h-40z" style="fill:#636363"/>
 <rect x="4" y="25" width="40" height="1" style="fill:#ffffff;opacity:.1"/>
 <path d="m7 8c-1.662 0-3 1.338-3 3v1c0-1.662 1.338-3 3-3h34c1.662 0 3 1.338 3 3v-1c0-1.662-1.338-3-3-3h-34z" style="fill:#ffffff;opacity:.1"/>
 <path d="m12.292969 14c-1.653013 2.251875-2.9327876 4.8-3.6562502 7.5-2.4313377 9.073876 2.3115742 16.461 10.578125 16.5h6l6.43164-24h-6l-4.822265 18c-4.957699-0.04125-7.731993-4.735874-6.1875-10.5 0.786665-2.935875 2.539032-5.59275 4.720703-7.5zm18.746093 6-1.339843 5h6l6.339843-5zm-1.875 7-1.339843 5h11l-3.660157-5z" style="opacity:.2"/>
 <path d="m12.292969 13c-1.653013 2.251875-2.9327876 4.8-3.6562502 7.5-2.4313377 9.073876 2.3115742 16.461 10.578125 16.5h6l6.43164-24h-6l-4.822265 18c-4.957699-0.04125-7.731993-4.735874-6.1875-10.5 0.786665-2.935875 2.539032-5.59275 4.720703-7.5h-7.064453zm18.746093 6-1.339843 5h6l6.339843-5h-11zm-1.875 7-1.339843 5h11l-3.660157-5h-6z" style="fill:#f4f4f4"/>
</svg>
