<svg width="16" height="16" version="1.1" xmlns="http://www.w3.org/2000/svg">
 <path d="M 2.8125,0 C 2.362375,0 2,0.3568 2,0.8 V 15.2 C 2,15.6432 2.362375,16 2.8125,16 h 11.375 C 14.637625,16 15,15.6432 15,15.2 V 5 L 11,4 10,0 Z" style="fill:#e4e4e4"/>
 <path d="M 15,5 10,0 V 4.1666667 C 10,4.6283333 10.371667,5 10.833333,5 Z" style="fill:#fafafa"/>
 <path d="m8.5 5c-3.093997 1.78632-4.999984 5.087516-5 8.660156 3.094011 1.786328 6.905989 1.786328 10 0-1.6e-5 -3.57264-1.906003-6.873836-5-8.660156zm1.728516 3.9121094c0.776605 0.4483733 0.310721 2.6529216-1.1171879 3.8593746 0.087015 0.123882 0.1367188 0.273192 0.1367188 0.429688-0.7769356 0.448566-2.4543775-1.057182-2.7851563-2.896484-0.1508077 0.013423-0.3039086-0.019403-0.4394531-0.097657 3.7e-6 -0.89682 2.1433969-1.5963129 3.9023437-0.9628904 0.0637747-0.1373161 0.1671878-0.2537746 0.3027348-0.3320312z" style="fill:#5330a0"/>
</svg>
