<svg width="16" height="16" version="1.1" xmlns="http://www.w3.org/2000/svg">
 <path d="M 2.8125,0 C 2.3605333,0 2,0.35498668 2,0.80000002 V 15.2 c 0,0.4448 0.3605333,0.800001 0.8125,0.800001 h 11.375 C 14.640333,16.000001 15,15.645867 15,15.2 V 5 L 10.53125,4.4000001 10,0 Z" style="fill:#7455d6"/>
 <path d="M 10,0 V 4.1667 C 10,4.6251 10.3749,5 10.8333,5 H 15 Z" style="fill:#8f7aea"/>
 <path d="m10.022146 7.000002v1h-1.0000009l1e-7 1.0000002h1.0000008v1.0000008h-1.0000008l-1e-7 0.999999h1.0000009v1h1v-1h1v1h1v-1h1v-1h-1v-1.0000001h1v-1.0000002h-1v-1l-1 4e-7v1l-1 3e-7v-1zm1 2.0000006 1-3e-7v1.0000007l-1 1e-6z" style="fill:#ffffff"/>
 <path d="m7.355621 12.684567s0 0.671142-1.8555499 0.671142-1.8555499-2.059063-1.8555499-3.355709c0-1.2966458 0-3.355708 1.8555499-3.355708s1.8555499 0.6711416 1.8555499 0.6711416" style="fill:none;stroke-linecap:square;stroke-width:1.28858;stroke:#ffffff"/>
</svg>
