<svg width="16" height="16" version="1.1" xmlns="http://www.w3.org/2000/svg">
 <path d="m2.75 0c-0.4172 0-0.75 0.3328-0.75 0.75v14.5c0 0.417 0.3328 0.75 0.75 0.75h11.499984c0.418 0 0.75-0.332 0.75-0.75v-10.25l-4.125-0.875-0.8749996-4.125z" style="fill:#3d69d6"/>
 <path d="m9.9999849 0v4.1667c0 0.4584 0.3748991 0.8333 0.8332991 0.8333h4.1667z" style="fill:#628be9"/>
 <path d="m8.355621 12.684565s0 0.671142-1.8555499 0.671142-1.8555499-2.059063-1.8555499-3.355709c0-1.2966458 0-3.355708 1.8555499-3.355708s1.8555499 0.6711416 1.8555499 0.6711416" style="fill:none;stroke-linecap:square;stroke-width:1.28858;stroke:#ffffff"/>
 <path d="m11.000638 7v1h-1v0.9999996h1v1.0000004h0.999362v-1.0000004h1v-0.9999996h-1v-1z" style="fill:#ffffff"/>
 <path d="m11.000014 10.999349v1h-1l-1.4e-5 1h1v1.000001l0.999986 6.51e-4v-1.000001h1l1.4e-5 -1h-1v-1z" style="fill:#ffffff"/>
</svg>
