<svg width="64" height="64" version="1.1" xmlns="http://www.w3.org/2000/svg">
 <circle cx="32" cy="33" r="28" style="opacity:.2"/>
 <circle cx="32" cy="32" r="28" style="fill:#e4e4e4"/>
 <path d="M 32,4 A 28,28 0 0 0 4,32 28,28 0 0 0 4.0332031,32.5 28,28 0 0 1 32,5 28,28 0 0 1 59.966797,32.5 28,28 0 0 0 60,32 28,28 0 0 0 32,4 Z" style="fill:#ffffff;opacity:.2"/>
 <path d="m32 21.5c-1.511745 0-2.3 1-2.3 1l-18.7 18.5c-0.659967 0.659967-0.459328 2.480605 0 3 1.324601 1.497824 3.010079 0.989978 4 0l11-11v-2c0-3.313708 2.686292-6 6-6s6 2.686292 6 6v2l11 11c0.98992 0.989978 2.675398 1.497824 4 0 0.459327-0.519395 0.663357-2.343441 0-3l-18.7-18.5s-0.788255-1-2.3-1zm0 7.5c-1.104569 0-2 0.895431-2 2s0.895431 2 2 2 2-0.895431 2-2-0.895431-2-2-2zm-4 6.400391-4 4.40039 4 2.800781c0 1e-6 2.069071-2.601562 4-2.601562s4 2.599609 4 2.599609l4-2.798828-4-4.40039c-1.104384 1.005055-2.506748 1.59929-4 1.599609-1.493252-3.19e-4 -2.895616-0.594554-4-1.599609z" style="opacity:.3"/>
 <path d="m32 20.5c-1.511745 0-2.3 1-2.3 1l-18.7 18.5c-0.659967 0.659967-0.459328 2.480605 0 3 1.324601 1.497824 3.010079 0.989978 4 0l11-11v-2c0-3.313708 2.686292-6 6-6s6 2.686292 6 6v2l11 11c0.98992 0.989978 2.675398 1.497824 4 0 0.459327-0.519395 0.663357-2.343441 0-3l-18.7-18.5s-0.788255-1-2.3-1zm0 7.5c-1.104569 0-2 0.895431-2 2s0.895431 2 2 2 2-0.895431 2-2-0.895431-2-2-2zm-4 6.400391-4 4.40039 4 2.800781c0 1e-6 2.069071-2.601562 4-2.601562s4 2.599609 4 2.599609l4-2.798828-4-4.40039c-1.104384 1.005055-2.506748 1.59929-4 1.599609-1.493252-3.19e-4 -2.895616-0.594554-4-1.599609z" style="fill:#333333"/>
</svg>
