<svg width="64" height="64" version="1" xmlns="http://www.w3.org/2000/svg">
 <path d="m 23,5 c -0.745356,0 -1.472953,0.4729555 -2,1.0000001 l -8,8.0000009 -7.9999999,8 C 4.4729518,22.527046 4,23.254643 4,24.000001 V 58 c 0,1.319936 1.6800689,3.000001 3.0000002,3.000001 H 40.999999 c 0.745359,0 1.472956,-0.472952 2,-1 L 51,52 59,43.999999 c 0.527049,-0.527044 1.000001,-1.254641 1.000001,-2 V 8.0000002 C 60.000001,6.6800688 58.319932,5 57,5 Z" style="opacity:.2"/>
 <path d="m40.999999 60h-33.999998c-1.3199314 0-3.0000003-1.680065-3.0000003-3v-33.999999c0-0.745359 0.4729519-1.472956 1.0000001-2.000001l8.0000002-8 37.999999 38-8.000001 8c-0.527044 0.527048-1.254641 1-2 1z" style="fill:#2086e7"/>
 <path d="m23 3.9999995 34 4e-7c1.319932 0 3.000001 1.6800666 3.000001 2.9999998v33.999999c0 0.745359-0.472952 1.472955-1.000001 2l-8 8.000001-38-38 8-8.0000007c0.527047-0.5270464 1.254644-1.0000001 2-0.9999998z" style="fill:#fe4b71"/>
 <path d="m23 3.9999995c-0.745356 0-1.472953 0.4729537-2 1.0000001l-8 8.0000004 0.5 0.5 7.5-7.5000003c0.527047-0.5270465 1.254644-1.0000001 2-1.0000001h34c1.319932 0 3.000001 1.680067 3.000001 3.0000002v-1.0000001c0-1.3199332-1.680069-3.0000002-3.000001-3.0000002z" style="fill:#ffffff;opacity:.2"/>
 <path d="m13 12.999999h38v38h-38z" style="fill:#3f3f3f"/>
 <path d="m17 43h15v3h-15z" style="opacity:.2"/>
 <path d="m17 42h15v3h-15z" style="fill:#ffffff"/>
 <path d="m31.999315 18h3.000685v10c0 3.009435-1.927068 5.000019-5 4.999997l-2-1.4e-5 -1e-6 -2.999983h2.000001c0.988592 0 2.000063-1.067856 1.999999-2.000002z" style="opacity:.2"/>
 <path d="m31.999315 17h3.000685v10c0 3.009435-1.927068 5.000019-5 4.999997l-2-1.4e-5 -1e-6 -2.999983h2.000001c0.988592 0 2.000063-1.067856 1.999999-2.000002z" style="fill:#ffffff"/>
 <path d="m17 18h9v3h-3v9h3v2.999997h-9v-2.999997h3v-9h-3z" style="opacity:.2"/>
 <path d="m17 17h9v3h-3v9h3v2.999997h-9v-2.999997h3v-9h-3z" style="fill:#ffffff"/>
 <path d="m13 13-8 8c-0.5270483 0.527045-1 1.254641-1 2v1c0-0.745358 0.4729517-1.472955 1-2l8-8v-1z" style="fill:#ffffff;opacity:.2"/>
</svg>
