<svg width="64" height="64" version="1" xmlns="http://www.w3.org/2000/svg">
 <path d="m12.75 5c-1.5235 0-2.75 1.2488-2.75 2.8v50.4c0 1.5512 1.2265 2.8 2.75 2.8h38.5c1.5235 0 2.75-1.2488 2.75-2.8v-36.2l-15-2-2-15z" style="opacity:.2"/>
 <path d="m12.75 4c-1.5235 0-2.75 1.2488-2.75 2.8v50.4c0 1.5512 1.2265 2.8 2.75 2.8h38.5c1.5235 0 2.75-1.2488 2.75-2.8v-36.2l-15-2-2-15z" style="fill:#00aad4"/>
 <path d="M 37,5 V 19.166667 C 37,20.731517 38.268526,22 39.833333,22 H 54 Z" style="opacity:.2"/>
 <path d="M 37,4 V 18.166667 C 37,19.731517 38.268526,21 39.833333,21 H 54 Z" style="fill:#52c6e1"/>
 <path d="M 12.75,4 C 11.2265,4 10,5.2495813 10,6.8007812 v 1 C 10,6.2495812 11.2265,5 12.75,5 H 37 V 4 Z" style="fill:#ffffff;opacity:.2"/>
 <path d="m32 26c-1.662 0-3 1.338-3 3v13c0 1.662 1.338 3 3 3s3-1.338 3-3v-13c0-1.662-1.338-3-3-3zm0 23c-1.662 0-3 1.338-3 3s1.338 3 3 3 3-1.338 3-3-1.338-3-3-3z" style="opacity:.2"/>
 <path d="m32 25c-1.662 0-3 1.338-3 3v13c0 1.662 1.338 3 3 3s3-1.338 3-3v-13c0-1.662-1.338-3-3-3zm0 23c-1.662 0-3 1.338-3 3s1.338 3 3 3 3-1.338 3-3-1.338-3-3-3z" style="fill:#ffffff"/>
</svg>
