<svg width="64" height="64" version="1.1" xmlns="http://www.w3.org/2000/svg">
 <rect x="4" y="5" width="56" height="56" ry="4" style="opacity:.2"/>
 <rect x="4" y="4" width="56" height="56" ry="4" style="fill:#37528c"/>
 <path d="m29.308594 12c-1.884615 0-3.069109 0.894078-3.960938 1.951172-0.949713 1.125705-1.726701 2.523251-1.96875 4.148437l-0.878906 5.900391 4.5 1h-6.691406c-1.11195 0-3.885244 0.976073-4.308594 4l-3.5 25h10.5l3.035156-22h3.964844c0.348809 0 0.576641 0.03175 0.744141 0 0.02347-0.0044 0.04511-0.01038 0.06641-0.01758 0.02073-7e-3 0.04157-0.01528 0.06055-0.02539 0.0097-0.0052 0.01996-0.01142 0.0293-0.01758 0.201863-0.133214 0.316401-0.489228 0.560547-1.400391l0.140624-0.9375 1.28124-8.601559h7.117188l-1.339844 9h10.339844l1.990234-13.361328c0.02246-0.150793 0.0293-0.304055 0.0293-0.457031-4e-6 -1.966752-1.817044-4.181641-4.480472-4.181641z" style="fill-rule:evenodd;opacity:.2"/>
 <path d="m8 4c-2.216 0-4 1.784-4 4v1c0-2.216 1.784-4 4-4h48c2.216 0 4 1.784 4 4v-1c0-2.216-1.784-4-4-4h-48z" style="fill-rule:evenodd;fill:#ffffff;opacity:.1"/>
 <path d="m29.307692 11c-1.884615 0-3.067775 0.89405-3.959604 1.951144-0.949713 1.125705-1.727354 2.523931-1.969403 4.149117l-0.878685 5.899739 4.5 1h-4v7h7c1 0 1 0.260956 1.461541-1.461538l1.420622-9.538462h7.117837l-1.340426 9h10.340426l1.989931-13.360962c0.02246-0.150793 0.02932-0.30349 0.02932-0.456466-1e-6 -1.966752-1.817362-4.182572-4.480789-4.182572z" style="fill-rule:evenodd;fill:#ffad33"/>
 <path d="m23 24v7h7.744141c0.312705-0.059274 0.416245-0.339264 0.716797-1.460938l0.140624-0.9375-4.601562-4.601562h-4z" style="fill-rule:evenodd;fill:#966214"/>
 <path d="m16 28-3.5 25h10.5l4-29h-6.692307c-1.11195 0-3.884343 0.976073-4.307693 4z" style="fill-rule:evenodd;fill:#ffad33"/>
 <path d="m20.308594 24c-1.11195 0-3.885244 0.976073-4.308594 4l-3.5 25h0.640625l3.359375-24c0.42335-3.023927 3.196644-4 4.308594-4h6.052734l0.138672-1h-6.691406z" style="fill-rule:evenodd;fill:#ffffff;opacity:.2"/>
 <path d="m16 28-3.5 25h10.5l4-29h-6.692307c-1.11195 0-3.884343 0.976073-4.307693 4z" style="opacity:0"/>
</svg>
