<svg width="64" height="64" version="1.1" xmlns="http://www.w3.org/2000/svg">
 <path d="m53.835938 19.001953c-0.744677 0.03455-1.407528 0.6212-1.605469 1.5l-0.173828 0.765625c-0.196603 0.87286 0.128607 1.759623 0.753906 2.220703l0.906249 2.222657c0.451109 1.106129 1.541556 1.592356 2.44336 1.091796l0.832032-0.460937c0.901804-0.50056 1.265561-1.794262 0.814452-2.900391l-1.117187-2.740234c-0.262121-0.642727-0.740441-1.07795-1.271484-1.230468-0.135131-0.09177-0.284325-0.16399-0.44336-0.212891l-0.615234-0.189454c-0.175646-0.05401-0.351589-0.07438-0.523437-0.06641z" style="opacity:.2"/>
 <path d="m54.246468 18.607349-0.832832 0.462276c-0.901804 0.50056-1.264639 1.794031-0.81353 2.90016l1.117633 2.740464c0.451109 1.106129 1.540278 1.593645 2.442082 1.093085l0.832833-0.462276c0.901804-0.50056 1.264638-1.794032 0.813529-2.900161l-1.117633-2.740463c-0.451109-1.10613-1.540278-1.593645-2.442082-1.093085z" style="fill:#4f4f4f"/>
 <path d="m54.975546 18.258274-0.615307-0.189201c-0.936778-0.28805-1.887062 0.350801-2.130681 1.432401l-0.172449 0.765626c-0.24362 1.0816 0.314411 2.184243 1.251189 2.472293l0.615307 0.189201c0.936778 0.28805 1.887061-0.350801 2.130681-1.432401l0.172449-0.765626c0.243619-1.0816-0.31441-2.184243-1.251189-2.472293z" style="fill:#4f4f4f"/>
 <path d="m47.316521 37.702981 1.668406-0.596525c1.201586-0.429618 2.673893 0.47931 3.301137 2.037953l1.434135 3.56369c0.627244 1.558643 0.164868 3.159301-1.036717 3.588918l-1.668406 0.596526c-1.201586 0.429617-2.673893-0.479311-3.301137-2.037954l-1.434135-3.563689c-0.627244-1.558644-0.164868-3.159302 1.036717-3.588919z" style="opacity:.2"/>
 <path d="m47.31652 36.702984 1.668407-0.596526c1.201585-0.429617 2.673893 0.479311 3.301137 2.037954l1.434134 3.56369c0.627245 1.558643 0.164869 3.159301-1.036716 3.588918l-1.668407 0.596526c-1.201585 0.429617-2.673892-0.47931-3.301136-2.037954l-1.434135-3.563689c-0.627244-1.558643-0.164869-3.159302 1.036716-3.588919z" style="fill:#4f4f4f"/>
 <path d="m37.423181 53.631232 3.715514-0.776526c0.962608-0.201181 1.886382 0.414439 2.071243 1.380314l0.770761 4.027145c0.18486 0.965875-0.44127 1.905418-1.403878 2.106599l-3.715514 0.776527c-0.962608 0.201181-1.886382-0.414439-2.071242-1.380314l-0.770761-4.027145c-0.184861-0.965876 0.441268-1.905418 1.403877-2.1066z" style="opacity:.2"/>
 <path d="m37.42318 52.631235 3.715514-0.776527c0.962608-0.201181 1.886382 0.41444 2.071242 1.380315l0.770762 4.027144c0.18486 0.965875-0.441269 1.905419-1.403878 2.1066l-3.715513 0.776527c-0.962608 0.201181-1.886383-0.41444-2.071243-1.380315l-0.770761-4.027145c-0.18486-0.965874 0.441269-1.905418 1.403877-2.106599z" style="fill:#4f4f4f"/>
 <path d="M 25.142856,31 H 38.857144 C 45.030286,31 50,35.969714 50,42.142856 v 3.714288 C 50,52.030286 45.030286,57 38.857144,57 H 25.142856 C 18.969714,57 14,52.030286 14,45.857144 V 42.142856 C 14,35.969714 18.969714,31 25.142856,31 Z" style="opacity:.2"/>
 <path d="M 25.142856,30 H 38.857144 C 45.030286,30 50,34.969714 50,41.142856 v 3.714288 C 50,51.030286 45.030286,56 38.857144,56 H 25.142856 C 18.969714,56 14,51.030286 14,44.857144 V 41.142856 C 14,34.969714 18.969714,30 25.142856,30 Z" style="fill:#cccccc"/>
 <path d="m54 22a22 17 0 0 1-22 17 22 17 0 0 1-22-17 22 17 0 0 1 22-17 22 17 0 0 1 22 17z" style="opacity:.2"/>
 <path d="m54 21a22 17 0 0 1-22 17 22 17 0 0 1-22-17 22 17 0 0 1 22-17 22 17 0 0 1 22 17z" style="fill:#cccccc"/>
 <path d="M 32,4 A 22,17 0 0 0 10,21 22,17 0 0 0 10.0098,21.5 22,17 0 0 1 32,5 22,17 0 0 1 53.990234,21.5 22,17 0 0 0 54,21 22,17 0 0 0 32,4 Z" style="fill:#ffffff;opacity:.2"/>
 <path d="m50 20a17 12 0 0 1-17 12 17 12 0 0 1-17-12 17 12 0 0 1 17-12 17 12 0 0 1 17 12z" style="fill:#4f4f4f"/>
 <path d="M 33,8 A 17,12 0 0 0 16,20 17,12 0 0 0 16.015625,20.5 17,12 0 0 1 33,9 17,12 0 0 1 49.984375,20.5 17,12 0 0 0 50,20 17,12 0 0 0 33,8 Z" style="opacity:.2"/>
 <path d="m28 18a2.5 4 0 0 1-2.5 4 2.5 4 0 0 1-2.5-4 2.5 4 0 0 1 2.5-4 2.5 4 0 0 1 2.5 4z" style="fill:#e6e6e6"/>
 <path d="m46 18a2.5 4 0 0 1-2.5 4 2.5 4 0 0 1-2.5-4 2.5 4 0 0 1 2.5-4 2.5 4 0 0 1 2.5 4z" style="fill:#e6e6e6"/>
 <path d="m32.5 19c-0.831 0-1.5 0.669-1.5 1.5s0.669 1.5 1.5 1.5h1.5v1.5c0 0.831 0.669 1.5 1.5 1.5s1.5-0.669 1.5-1.5v-1.5h1.5c0.831 0 1.5-0.669 1.5-1.5s-0.669-1.5-1.5-1.5z" style="opacity:.2"/>
 <path d="m32.500004 18h6c0.831 0 1.5 0.669 1.5 1.5s-0.669 1.5-1.5 1.5h-6c-0.831 0-1.5-0.669-1.5-1.5s0.669-1.5 1.5-1.5z" style="fill:#e6e6e6"/>
 <path d="m35.5 18h4e-6c0.831 0 1.5 0.669 1.5 1.5v3c0 0.831-0.669 1.5-1.5 1.5h-4e-6c-0.831 0-1.5-0.669-1.5-1.5v-3c0-0.831 0.669-1.5 1.5-1.5z" style="fill:#e6e6e6"/>
 <path d="m22.017498 53.093512 1.315302 0.255878c1.641831 0.319401 2.823861 1.358571 2.650291 2.329979l-0.723688 4.05021c-0.17357 0.971408-1.635067 1.496309-3.276898 1.176908l-1.315302-0.255878c-1.641831-0.319401-2.823861-1.358573-2.650291-2.32998l0.723688-4.05021c0.17357-0.971408 1.635066-1.496309 3.276898-1.176907z" style="opacity:.2"/>
 <path d="m22.017499 52.093513 1.315303 0.255878c1.64183 0.319401 2.82386 1.358572 2.650289 2.329979l-0.723687 4.050211c-0.173571 0.971407-1.635067 1.496307-3.276897 1.176906l-1.315303-0.255878c-1.641832-0.319401-2.823861-1.358571-2.650291-2.329979l0.723688-4.050211c0.17357-0.971407 1.635066-1.496307 3.276898-1.176906z" style="fill:#4f4f4f"/>
 <path d="m14.890133 37.091305 1.709932 0.553625c1.231491 0.39872 1.74639 1.984498 1.154481 3.555557l-1.353342 3.592071c-0.591909 1.571057-2.059846 2.514853-3.291338 2.116133l-1.709931-0.553625c-1.231492-0.398721-1.7463906-1.9845-1.154482-3.555557l1.353343-3.592072c0.591909-1.571058 2.059846-2.514853 3.291337-2.116132z" style="opacity:.2"/>
 <path d="m14.890133 36.091305 1.709931 0.553625c1.231491 0.398721 1.74639 1.9845 1.154481 3.555557l-1.353342 3.592071c-0.59191 1.571059-2.059847 2.514854-3.291338 2.116133l-1.70993-0.553625c-1.231493-0.39872-1.746391-1.984498-1.154482-3.555557l1.353343-3.592071c0.591909-1.571057 2.059845-2.514853 3.291337-2.116133z" style="fill:#4f4f4f"/>
 <path d="m10.164063 19.001953c-0.1718488-8e-3 -0.3477923 0.0124-0.5234381 0.06641l-0.6152344 0.189453c-0.1590313 0.0489-0.3082287 0.121122-0.4433598 0.21289-0.5310482 0.152516-1.0093633 0.587731-1.2714845 1.230468l-1.1171876 2.740234c-0.4511084 1.10613-0.08735 2.399831 0.814453 2.900391l0.8320312 0.460937c0.9018035 0.50056 1.9922512 0.01433 2.4433592-1.091796l0.906251-2.222655c0.625303-0.461079 0.95051-1.347839 0.753906-2.220703l-0.173828-0.765625c-0.19794-0.8788-0.860793-1.465455-1.605468-1.5z" style="opacity:.2"/>
 <path d="m9.7535303 18.60735 0.8328327 0.462276c0.901803 0.50056 1.264637 1.794031 0.813528 2.900161l-1.117633 2.740463c-0.4511081 1.10613-1.5402753 1.593646-2.4420783 1.093086l-0.8328326-0.462276c-0.9018039-0.500561-1.2646378-1.794032-0.8135293-2.900161l1.1176329-2.740464c0.4511086-1.106129 1.5402757-1.593645 2.4420796-1.093085z" style="fill:#4f4f4f"/>
 <path d="m9.0244567 18.258275 0.6153071-0.189201c0.9367772-0.28805 1.8870602 0.350801 2.1306792 1.432401l0.17245 0.765626c0.243619 1.0816-0.314411 2.184244-1.251188 2.472294l-0.615307 0.189201c-0.9367778 0.28805-1.8870611-0.350801-2.1306801-1.432401l-0.1724493-0.765626c-0.243619-1.081601 0.3144107-2.184244 1.2511881-2.472294z" style="fill:#4f4f4f"/>
</svg>
