<svg width="64" height="64" version="1.1" xmlns="http://www.w3.org/2000/svg">
 <rect x="4" y="9" width="56" height="48" rx="4" style="opacity:.2"/>
 <rect x="4" y="8" width="56" height="48" rx="4" style="fill:#4f4f4f"/>
 <path d="m4 32v20c0 2.216 1.784 4 4 4h48c2.216 0 4-1.784 4-4v-20h-56z" style="fill:#636363"/>
 <rect x="4" y="32" width="56" height="1" style="fill:#ffffff;opacity:.1"/>
 <path d="m8 8c-2.216 0-4 1.784-4 4v1c0-2.216 1.784-4 4-4h48c2.216 0 4 1.784 4 4v-1c0-2.216-1.784-4-4-4z" style="fill:#ffffff;opacity:.1"/>
 <path d="m15.191406 16c-2.341769 3.190157-4.119625 6.675-5.144531 10.5-3.4443941 12.854658 3.242178 23.44475 14.953125 23.5h8l9.111328-34h-8l-6.699219 25c-7.023405-0.05844-11.053266-6.334155-8.865234-14.5 1.114442-4.159156 3.563596-7.798062 6.654297-10.5zm26.507813 9-1.875 7h9l8.875-7zm-2.410157 9-1.876953 7h16l-5.123047-7z" style="opacity:.2"/>
 <path d="m15.191406 15c-2.341769 3.190157-4.119625 6.675-5.144531 10.5-3.4443941 12.854658 3.242178 23.44475 14.953125 23.5h8l9.111328-34h-8l-6.699219 25c-7.023405-0.05844-11.053266-6.334155-8.865234-14.5 1.114442-4.159156 3.563596-7.798062 6.654297-10.5zm26.507813 9-1.875 7h9l8.875-7zm-2.410157 9-1.876953 7h16l-5.123047-7z" style="fill:#f4f4f4"/>
</svg>
