<svg width="32" height="32" version="1" xmlns="http://www.w3.org/2000/svg">
 <path d="m13 3c-0.745357 0-1.472954 0.4729537-2 0.9999999l-4.0000002 3.9999999-3.9999998 4.0000002c-0.5270461 0.527046-1 1.254644-1 2v15c0 0.942809 1.0571911 2 1.9999999 2h15c0.745356 0 1.472953-0.472954 2-1l8-8c0.527046-0.527046 1-1.254644 1-2v-15c0-0.9428092-1.057191-2-2-2z" style="opacity:.2"/>
 <path d="m19 30h-15c-0.9428089 0-1.9999999-1.057191-1.9999999-2v-15c0-0.745355 0.4729537-1.472954 0.9999997-2l4.0000001-4.0000005 18 18-4 4c-0.527047 0.527045-1.254644 1-2 1z" style="fill:#2086e7"/>
 <path d="m13 1.9999995 15 2e-7c0.942809 0 2 1.057191 2 1.9999999v15c0 0.745356-0.472954 1.472954-1 2l-4 4-18-18 4-3.9999998c0.527046-0.5270463 1.254644-1.0000002 2-1.0000003z" style="fill:#fe4b71"/>
 <path d="m13 1.9999997c-0.745356 0-1.472954 0.4729538-2 1l-4.0000002 4.0000001 0.5 0.5000001 3.5000002-3.5000003c0.527046-0.5270462 1.254644-0.9999999 2-0.9999999h15c0.942809 0 2 1.0571908 2 2v-1.0000001c0-0.9428089-1.057191-1.9999999-2-1.9999999z" style="fill:#ffffff;opacity:.2"/>
 <path d="m7 6.9999995h18v18h-18z" style="fill:#3f3f3f"/>
 <path d="m9 22h9v2h-9z" style="fill:#1a1a1a;opacity:.2"/>
 <path d="m9 21h9v2h-9z" style="fill:#ffffff"/>
 <path d="m18 9.9999995h2v6.0000005c0 1.935029-0.994442 2.999998-3 3l-1 1e-6v-2h1c0.507852 0 1-0.455046 1-1z" style="fill:#1a1a1a;opacity:.2"/>
 <path d="m18 8.9999995h2v6.0000005c0 1.935029-0.994442 2.999998-3 3l-1 1e-6v-2h1c0.507852 0 1-0.455047 1-1z" style="fill:#ffffff"/>
 <path d="m8.9999999 9.9999995h6.0000001v2.0000005h-2v5h2v2h-6.0000001v-2h2.0000001l3e-6 -5h-1.9666603z" style="fill:#1a1a1a;opacity:.2"/>
 <path d="m8.9999999 8.9999995h6.0000001v2.0000005h-2v5h2v2h-6.0000001v-2h2.0000001l3e-6 -5h-1.9666603z" style="fill:#ffffff"/>
 <path d="m7 7-4 4c-0.527046 0.527046-1 1.254645-1 2v1c0-0.745356 0.472954-1.472954 1-2l4-4v-1z" style="fill:#ffffff;opacity:.2"/>
</svg>
