<svg width="32" height="32" version="1" xmlns="http://www.w3.org/2000/svg">
 <path d="m6.375 3c-0.76175 0-1.375 0.6244-1.375 1.4v25.2c0 0.7756 0.61325 1.4 1.375 1.4h19.25c0.76175 0 1.375-0.6244 1.375-1.4v-18.6l-7-1-1-7z" style="opacity:.2"/>
 <path d="m6.375 2c-0.76175 0-1.375 0.6244-1.375 1.4v25.2c0 0.7756 0.61325 1.4 1.375 1.4h19.25c0.76175 0 1.375-0.6244 1.375-1.4v-18.6l-7-1-1-7z" style="fill:#00aad4"/>
 <path d="M 19,3 V 9.6666667 C 19,10.403067 19.596953,11 20.333333,11 H 27 Z" style="opacity:.2"/>
 <path d="M 19,2 V 8.6666667 C 19,9.4030667 19.596953,10 20.333333,10 H 27 Z" style="fill:#52c6e1"/>
 <path d="M 6.375,2 C 5.61325,2 5,2.6247906 5,3.4003906 v 1 C 5,3.6247906 5.61325,3 6.375,3 H 19 V 2 Z" style="fill:#ffffff;opacity:.2"/>
 <path d="m15.5 14a1.5 1.5 0 0 0-1.5 1.5v6a1.5 1.5 0 0 0 1.5 1.5 1.5 1.5 0 0 0 1.5-1.5v-6a1.5 1.5 0 0 0-1.5-1.5zm0 11a1.5 1.5 0 0 0-1.5 1.5 1.5 1.5 0 0 0 1.5 1.5 1.5 1.5 0 0 0 1.5-1.5 1.5 1.5 0 0 0-1.5-1.5z" style="opacity:.2"/>
 <path d="m15.5 13a1.5 1.5 0 0 0-1.5 1.5v6a1.5 1.5 0 0 0 1.5 1.5 1.5 1.5 0 0 0 1.5-1.5v-6a1.5 1.5 0 0 0-1.5-1.5zm0 11a1.5 1.5 0 0 0-1.5 1.5 1.5 1.5 0 0 0 1.5 1.5 1.5 1.5 0 0 0 1.5-1.5 1.5 1.5 0 0 0-1.5-1.5z" style="fill:#ffffff"/>
</svg>
