<svg width="32" height="32" version="1.1" xmlns="http://www.w3.org/2000/svg">
 <rect x="2" y="3" width="28" height="28" rx="2.5" ry="2.5" style="opacity:.2"/>
 <rect x="2" y="2" width="28" height="28" rx="2.5" ry="2.5" style="fill:#37528c"/>
 <path d="M 15.207031,7 C 14.264723,7 13.674431,7.4480155 13.228516,7.9765625 12.206182,9.1883455 12.305232,10.369458 12,12 l 2,1 h -2 -1.041016 c -0.555975,0 -1.8339445,0.392046 -2.1542965,1.884766 L 7,27 h 4.914062 l 1.490235,-10 h 2.324219 c 0.04781,-5e-6 0.09193,-0.01771 0.132812,-0.04687 0.02727,-0.01942 0.05402,-0.04327 0.07813,-0.07227 0.06026,-0.07249 0.108878,-0.17051 0.148438,-0.273437 0.04739,-0.123618 0.08005,-0.254723 0.0957,-0.355469 L 16.328125,15.328125 17,11 h 4 l -0.744141,5 H 25 L 25.984375,9.3203125 C 25.995498,9.244904 26,9.1682849 26,9.0917969 26,8.1084209 25.177417,7 23.845703,7 Z" style="fill-rule:evenodd;opacity:.2"/>
 <path d="M 15.207031,6 C 14.264723,6 13.674431,6.4480155 13.228516,6.9765625 12.206182,8.1883455 12.305232,9.3694584 12,11 l 2,1 h -2 v 4 h 3.728516 c 0.254985,0 0.413784,-0.478784 0.45552,-0.747449 L 17,10 h 4 l -0.744141,5 H 25 L 25.984375,8.3203125 C 25.995498,8.244904 26,8.1682849 26,8.0917969 26,7.1084209 25.177417,6 23.845703,6 Z" style="fill-rule:evenodd;fill:#ffad33"/>
 <path d="m12 12v4h3.728516c0.254985 0 0.413342-0.479382 0.455078-0.748047l0.144531-0.923828-2.328125-2.328125h-2z" style="fill-rule:evenodd;fill:#966214"/>
 <path d="M 8.8044189,13.884616 7,26 h 4.914894 L 14,12 h -3.041735 c -0.555975,0 -1.8334941,0.391896 -2.1538461,1.884616 z" style="fill-rule:evenodd;fill:#ffad33"/>
 <path d="m10.958984 12c-0.555975 0-1.8339445 0.392046-2.1542965 1.884766l-1.8046875 12.115234h0.6484375l1.65625-11.115234c0.320352-1.49272 1.5983215-1.884766 2.1542965-1.884766h2.392578l0.148438-1h-3.041016z" style="fill-rule:evenodd;fill:#ffffff;opacity:.2"/>
 <path d="m4.5 2c-1.385 0-2.5 1.115-2.5 2.5v1c0-1.385 1.115-2.5 2.5-2.5h23c1.385 0 2.5 1.115 2.5 2.5v-1c0-1.385-1.115-2.5-2.5-2.5h-23z" style="fill:#ffffff;opacity:.1"/>
</svg>
