<svg width="32" height="32" version="1.1" xmlns="http://www.w3.org/2000/svg">
 <path d="m26.917969 10c-0.372338 0.01727-0.703764 0.3106-0.802734 0.75l-0.08594 0.382812c-0.0983 0.436431 0.0643 0.880789 0.376949 1.111331l0.453125 1.111328c0.225554 0.553064 0.769801 0.797155 1.220703 0.546875l0.416025-0.232397c0.450902-0.25028 0.631805-0.896154 0.406251-1.449218l-0.558594-1.371094c-0.131061-0.321365-0.369243-0.537023-0.634766-0.613282-0.06756-0.04588-0.141186-0.08297-0.220703-0.107421l-0.308594-0.09375c-0.08782-0.02701-0.175795-0.039142-0.261718-0.03515z" style="opacity:.2"/>
 <path d="m23.65826 19.351492 0.834203-0.298263c0.600793-0.214809 1.336947 0.239655 1.650569 1.018976l0.717067 1.781845c0.313622 0.779322 0.08243 1.579651-0.518359 1.79446l-0.834203 0.298262c-0.600792 0.214809-1.336946-0.239655-1.650568-1.018976l-0.717068-1.781845c-0.313622-0.779322-0.082434-1.579651 0.518359-1.794459z" style="opacity:.2"/>
 <path d="m23.65826 18.351492 0.834204-0.298263c0.600792-0.214808 1.336946 0.239655 1.650568 1.018978l0.717067 1.781844c0.313622 0.779321 0.08243 1.579651-0.518358 1.79446l-0.834203 0.298262c-0.600793 0.214809-1.336947-0.239655-1.650569-1.018977l-0.717067-1.781844c-0.313623-0.779322-0.08244-1.579651 0.518358-1.79446z" style="fill:#4f4f4f"/>
 <path d="m19.313998 27.189717 0.652942-0.136462c0.815037-0.17034 1.545598 0.08132 1.638029 0.564256l0.38538 2.013572c0.09243 0.482938-0.489309 1.008861-1.304346 1.1792l-0.652942 0.136462c-0.815038 0.17034-1.545599-0.08132-1.638029-0.564256l-0.38538-2.013572c-0.09243-0.482938 0.489308-1.008861 1.304346-1.1792z" style="opacity:.2"/>
 <path d="m19.313997 26.189717 0.652943-0.136462c0.815038-0.17034 1.545598 0.08132 1.638028 0.564256l0.385381 2.013573c0.09243 0.482937-0.489308 1.008861-1.304346 1.1792l-0.652942 0.136462c-0.815038 0.17034-1.545599-0.08132-1.638029-0.564256l-0.385381-2.013573c-0.09243-0.482937 0.489309-1.008861 1.304346-1.1792z" style="fill:#4f4f4f"/>
 <path d="m 12.571428,16 h 6.857144 C 22.515143,16 25,18.484857 25,21.571428 v 1.857144 C 25,26.515143 22.515143,29 19.428572,29 H 12.571428 C 9.4848568,29 7,26.515143 7,23.428572 V 21.571428 C 7,18.484857 9.4848568,16 12.571428,16 Z" style="opacity:.2"/>
 <path d="m 12.571428,15 h 6.857144 C 22.515143,15 25,17.484857 25,20.571428 v 1.857144 C 25,25.515143 22.515143,28 19.428572,28 H 12.571428 C 9.4848568,28 7,25.515143 7,22.428572 V 20.571428 C 7,17.484857 9.4848568,15 12.571428,15 Z" style="fill:#cccccc"/>
 <path d="m27 11.5a11 8.5 0 0 1-11 8.5 11 8.5 0 0 1-11-8.5 11 8.5 0 0 1 11-8.5 11 8.5 0 0 1 11 8.5z" style="opacity:.2"/>
 <path d="m27.123234 9.3036736-0.416416 0.2311381c-0.450902 0.2502799-0.63232 0.8970163-0.406765 1.4500813l0.558817 1.370231c0.225554 0.553065 0.770139 0.796823 1.221041 0.546543l0.416416-0.231138c0.450902-0.25028 0.632319-0.897016 0.406765-1.45008l-0.558817-1.3702321c-0.225555-0.5530647-0.770139-0.7968232-1.221041-0.5465433z" style="fill:#4f4f4f"/>
 <path d="m27.487773 9.1291372-0.307653-0.0946c-0.468389-0.1440254-0.943531 0.1753998-1.065341 0.7161999l-0.08622 0.3828129c-0.121809 0.5408 0.157206 1.092122 0.625595 1.236147l0.307653 0.0946c0.468389 0.144025 0.943532-0.1754 1.065341-0.7162l0.08623-0.382813c0.1218-0.5408003-0.157216-1.0921218-0.625605-1.2361468z" style="fill:#4f4f4f"/>
 <path d="m27 10.5a11 8.5 0 0 1-11 8.5 11 8.5 0 0 1-11-8.5 11 8.5 0 0 1 11-8.5 11 8.5 0 0 1 11 8.5z" style="fill:#cccccc"/>
 <path d="M 16,2 A 11,8.5 0 0 0 5,10.5 11,8.5 0 0 0 5.0195312,11.001953 11,8.5 0 0 1 16,3 11,8.5 0 0 1 26.980469,11.001953 11,8.5 0 0 0 27,10.5 11,8.5 0 0 0 16,2 Z" style="fill:#ffffff;opacity:.2"/>
 <path d="m5.0820312 9.9999999c-0.085924-0.00399-0.1738958 0.00815-0.2617187 0.035156l-0.3085938 0.09375c-0.079516 0.02445-0.1531373 0.06154-0.2207031 0.107422-0.2655242 0.07626-0.5037039 0.291915-0.6347656 0.613281l-0.5585938 1.371094c-0.2255542 0.553065-0.044652 1.198939 0.4062501 1.449219l0.4160256 0.232397c0.4509018 0.25028 0.9951487 0.0062 1.2207029-0.546874l0.4531152-1.1113039c0.3126517-0.23054 0.4752552-0.674896 0.3769531-1.111329l-0.0859374-0.382812c-0.0989703-0.4394-0.4303967-0.732727-0.8027345-0.7500001z" style="opacity:.2"/>
 <path d="m4.876765 9.3036746 0.4164163 0.2311382c0.4509017 0.2502799 0.6323186 0.8970162 0.4067644 1.4500802l-0.5588165 1.370232c-0.2255543 0.553065-0.770138 0.796823-1.2210397 0.546543l-0.4164163-0.231138c-0.4509018-0.25028-0.6323187-0.897016-0.4067645-1.450081l0.5588165-1.3702316c0.2255542-0.5530646 0.770138-0.7968228 1.2210398-0.5465428z" style="fill:#4f4f4f"/>
 <path d="m4.5122285 9.1291379 0.3076535-0.0946005c0.4683888-0.1440251 0.9435301 0.1753997 1.0653398 0.7162003l0.086225 0.3828133c0.1218094 0.5408-0.1572054 1.092121-0.6255942 1.236147l-0.3076535 0.0946c-0.4683889 0.144025-0.9435306-0.175401-1.06534-0.7162l-0.0862248-0.382814c-0.1218096-0.5408002 0.1572055-1.092121 0.6255942-1.2361461z" style="fill:#4f4f4f"/>
 <path d="m25 10a8.5 6 0 0 1-8.5 6 8.5 6 0 0 1-8.5-6 8.5 6 0 0 1 8.5-6 8.5 6 0 0 1 8.5 6z" style="fill:#4f4f4f"/>
 <path d="M 16.5,4 A 8.5,6 0 0 0 8,10 8.5,6 0 0 0 8.0292969,10.5 8.5,6 0 0 1 16.5,5 8.5,6 0 0 1 24.970703,10.5 8.5,6 0 0 0 25,10 8.5,6 0 0 0 16.5,4 Z" style="opacity:.2"/>
 <path d="m14 9a1.25 2 0 0 1-1.25 2 1.25 2 0 0 1-1.25-2 1.25 2 0 0 1 1.25-2 1.25 2 0 0 1 1.25 2z" style="fill:#e6e6e6"/>
 <path d="m23 9a1.25 2 0 0 1-1.25 2 1.25 2 0 0 1-1.25-2 1.25 2 0 0 1 1.25-2 1.25 2 0 0 1 1.25 2z" style="fill:#e6e6e6"/>
 <path d="m15.75 10c-0.1385 0-0.25 0.1115-0.25 0.25v0.5c0 0.1385 0.1115 0.25 0.25 0.25h1.25v1.25c0 0.1385 0.1115 0.25 0.25 0.25h0.5c0.1385 0 0.25-0.1115 0.25-0.25v-1.25h1.25c0.1385 0 0.25-0.1115 0.25-0.25v-0.5c0-0.1385-0.1115-0.25-0.25-0.25z" style="opacity:.2"/>
 <path d="m15.75 9h3.5c0.1385 0 0.25 0.1115 0.25 0.25v0.5c0 0.1385-0.1115 0.25-0.25 0.25h-3.5c-0.1385 0-0.25-0.1115-0.25-0.25v-0.5c0-0.1385 0.1115-0.25 0.25-0.25z" style="fill:#e6e6e6"/>
 <path d="m17.25 9h0.5c0.1385 0 0.25 0.1115 0.25 0.25v2c0 0.1385-0.1115 0.25-0.25 0.25h-0.5c-0.1385 0-0.25-0.1115-0.25-0.25v-2c0-0.1385 0.1115-0.25 0.25-0.25z" style="fill:#e6e6e6"/>
 <path d="m11.008749 27.046755 0.657652 0.127939c0.820915 0.159701 1.41193 0.679287 1.325145 1.16499l-0.361844 2.025105c-0.08679 0.485704-0.817533 0.748154-1.638448 0.588454l-0.657652-0.127939c-0.8209156-0.159701-1.4119302-0.679286-1.3251452-1.16499l0.3618438-2.025105c0.086785-0.485704 0.8175334-0.748154 1.6384484-0.588454z" style="opacity:.2"/>
 <path d="m11.008749 26.046756 0.657652 0.12794c0.820915 0.1597 1.41193 0.679285 1.325145 1.164989l-0.361844 2.025105c-0.08679 0.485704-0.817533 0.748155-1.638449 0.588454l-0.657652-0.127939c-0.8209148-0.159701-1.4119295-0.679286-1.3251444-1.16499l0.3618438-2.025105c0.086785-0.485704 0.8175336-0.748154 1.6384486-0.588454z" style="fill:#4f4f4f"/>
 <path d="m7.445067 19.045652 0.8549657 0.276813c0.6157458 0.19936 0.8731947 0.99225 0.5772403 1.777778l-0.6766713 1.796036c-0.2959545 0.785529-1.0299225 1.257427-1.6456682 1.058067l-0.8549658-0.276813c-0.6157457-0.19936-0.8731946-0.99225-0.5772402-1.777778l0.6766713-1.796036c0.2959544-0.785529 1.0299225-1.257427 1.6456682-1.058067z" style="opacity:.2"/>
 <path d="m7.4450663 18.045653 0.8549657 0.276813c0.6157457 0.19936 0.873195 0.992248 0.5772402 1.777778l-0.6766713 1.796036c-0.2959544 0.785528-1.0299225 1.257426-1.6456682 1.058066l-0.8549657-0.276812c-0.6157457-0.199361-0.8731947-0.99225-0.5772402-1.777779l0.6766712-1.796035c0.2959548-0.78553 1.0299226-1.257427 1.6456683-1.058067z" style="fill:#4f4f4f"/>
</svg>
