<svg width="32" height="32" version="1.1" xmlns="http://www.w3.org/2000/svg">
 <rect x="2" y="6" width="28" height="23" rx="2.5" style="opacity:.2"/>
 <rect x="2" y="4" width="28" height="24" rx="2.5" style="fill:#4f4f4f"/>
 <path d="m2 16v9.5c0 1.385 1.115 2.5 2.5 2.5h23c1.385 0 2.5-1.115 2.5-2.5v-9.5z" style="fill:#636363"/>
 <rect x="2" y="16" width="28" height="1" style="fill:#ffffff;opacity:.1"/>
 <path d="m4.5 4c-1.385 0-2.5 1.115-2.5 2.5v1c0-1.385 1.115-2.5 2.5-2.5h23c1.385 0 2.5 1.115 2.5 2.5v-1c0-1.385-1.115-2.5-2.5-2.5z" style="fill:#ffffff;opacity:.1"/>
 <path d="m7.0292969 9c-1.170885 1.595078-2.0754375 3.399999-2.5878907 5.3125-1.7221976 6.427329 1.7636662 11.657922 7.6191408 11.685547l4.248047 0.001953 4.55664-17h-4l-3.484375 13c-3.9911012-0.033209-5.9275201-3.999982-4.9394528-7.6875 0.6196278-2.312482 1.6284768-3.961531 3.1738278-5.3125zm13.763672 4-1.072266 4 4.007813-0.03125 5.064453-3.96875zm2.660156 5-4.007813 0.03125-1.064453 3.96875h8z" style="opacity:.2"/>
 <path d="m7.0292969 8c-1.170885 1.5950783-2.0754375 3.399999-2.5878907 5.3125-1.7221976 6.427329 1.7636662 11.657922 7.6191408 11.685547l4.248047 0.001953 4.55664-17h-4l-3.484375 13c-3.9911012-0.033209-5.9275201-3.999982-4.9394528-7.6875 0.6196278-2.312482 1.6284768-3.9615311 3.1738278-5.3125zm13.763672 4-1.072266 4 4.007813-0.03125 5.064453-3.96875zm2.660156 5-4.007813 0.03125-1.064453 3.96875h8z" style="fill:#f4f4f4"/>
</svg>
