<svg width="32" height="32" version="1.1" xmlns="http://www.w3.org/2000/svg">
 <path d="m4.5 4c-1.385 0-2.5 1.115-2.5 2.5v8.5c0 7.731986 6.2680135 14 14 14h11.5c1.385 0 2.5-1.115 2.5-2.5v-20c0-1.385-1.115-2.5-2.5-2.5zm0 0c-1.385 0-2.5 1.115-2.5 2.5v8.5c0 7.731986 6.2680135 14 14 14h11.5c1.385 0 2.5-1.115 2.5-2.5v-20c0-1.385-1.115-2.5-2.5-2.5z" style="opacity:.2"/>
 <path d="m4.5 3c-1.385 0-2.5 1.115-2.5 2.5v8.5c0 7.731986 6.2680135 14 14 14h11.5c1.385 0 2.5-1.115 2.5-2.5v-20c0-1.385-1.115-2.5-2.5-2.5zm0 0c-1.385 0-2.5 1.115-2.5 2.5v8.5c0 7.731986 6.2680135 14 14 14h11.5c1.385 0 2.5-1.115 2.5-2.5v-20c0-1.385-1.115-2.5-2.5-2.5z" style="fill:#2d63db"/>
 <path d="m4.5 3c-0.0865625 0-0.1716125 0.0051672-0.2558594 0.0136719-0.0842468 0.0085046-0.1684814 0.0205127-0.25 0.0371093-0.0815185 0.0165967-0.1599035 0.0362708-0.2382812 0.0605469s-0.1556446 0.0524414-0.2304688 0.0839844-0.1478918 0.0670715-0.21875 0.1054687c-0.3542907 0.1919861-0.656665 0.4664307-0.8808594 0.7988282-0.0448388 0.0664795-0.0866027 0.1361731-0.125 0.2070312-0.1535888 0.2834326-0.2530908 0.6005127-0.2871093 0.9375-0.0085047 0.0842469-0.0136719 0.1692969-0.0136719 0.2558594v8.5c0 0.336233 0.0118452 0.669698 0.0351562 1h27.964844v-9.5c0-1.385-1.115-2.5-2.5-2.5h-23z" style="fill:#224dae"/>
 <path d="M 7.1660156,8 C 6.4225306,9.595078 6,11.399999 6,13.3125 6,19.739829 10.887123,24.970422 16.75,24.998047 L 21,25 V 8 H 17 V 21 C 13,20.966791 10,17.000018 10,13.3125 10,11.000018 10.56664,9.350969 11.75,8 Z M 22,12 v 4 L 25,15.96875 29,12 Z m 3,5 -3,0.03125 V 21 h 7 z" style="opacity:.2"/>
 <path d="M 7.1660156,7 C 6.4225306,8.5950783 6,10.399999 6,12.3125 6,18.739829 10.887123,23.970422 16.75,23.998047 L 21,24 V 7 H 17 V 20 C 13,19.966791 10,16.000018 10,12.3125 10,10.000018 10.56664,8.3509689 11.75,7 Z M 22,11 v 4 L 25,14.96875 29,11 Z m 3,5 -3,0.03125 V 20 h 7 z" style="fill:#ffffff"/>
 <path d="m4.5 3c-1.385 0-2.5 1.115-2.5 2.5v1c0-1.385 1.115-2.5 2.5-2.5h23c1.385 0 2.5 1.115 2.5 2.5v-1c0-1.385-1.115-2.5-2.5-2.5z" style="fill:#ffffff;opacity:.1"/>
</svg>
