<svg width="32" height="32" version="1.1" xmlns="http://www.w3.org/2000/svg">
 <path d="m4.5 4c-1.385 0-2.5 1.115-2.5 2.5v8.5c0 7.731986 6.2680135 14 14 14h11.5c1.385 0 2.5-1.115 2.5-2.5v-20c0-1.385-1.115-2.5-2.5-2.5zm0 0c-1.385 0-2.5 1.115-2.5 2.5v8.5c0 7.731986 6.2680135 14 14 14h11.5c1.385 0 2.5-1.115 2.5-2.5v-20c0-1.385-1.115-2.5-2.5-2.5z" style="opacity:.2"/>
 <path d="m4.5 3c-1.385 0-2.5 1.115-2.5 2.5v8.5c0 7.731986 6.2680135 14 14 14h11.5c1.385 0 2.5-1.115 2.5-2.5v-20c0-1.385-1.115-2.5-2.5-2.5zm0 0c-1.385 0-2.5 1.115-2.5 2.5v8.5c0 7.731986 6.2680135 14 14 14h11.5c1.385 0 2.5-1.115 2.5-2.5v-20c0-1.385-1.115-2.5-2.5-2.5z" style="fill:#c6b6ac"/>
 <path d="m4.5 4c-0.0865625 0-0.1716125 0.0051672-0.2558594 0.0136719-0.1684936 0.0170093-0.3315259 0.049104-0.4882812 0.0976562-0.6270215 0.194209-1.1479004 0.6284473-1.4550782 1.1953125-0.038397 0.070858-0.073926 0.1439258-0.1054687 0.21875-0.031543 0.074824-0.059708 0.1520911-0.083984 0.2304688-0.024276 0.078378-0.04395 0.1567627-0.060547 0.2382812-0.016597 0.081519-0.028605 0.1657532-0.037109 0.25-0.0085053 0.0842469-0.0136725 0.1692969-0.0136725 0.2558594v7.5h28v-7.5c0-1.385-1.115-2.5-2.5-2.5z" style="opacity:.1"/>
 <path d="m4.5 3c-0.0865625 0-0.1716125 0.0051672-0.2558594 0.0136719-0.1684936 0.0170093-0.3315259 0.049104-0.4882812 0.0976562-0.6270215 0.194209-1.1479004 0.6284473-1.4550782 1.1953125-0.038397 0.070858-0.073926 0.1439258-0.1054687 0.21875-0.031543 0.074824-0.059708 0.1520911-0.083984 0.2304688-0.024276 0.078378-0.04395 0.1567627-0.060547 0.2382812-0.016597 0.081519-0.028605 0.1657532-0.037109 0.25-0.0085053 0.0842469-0.0136725 0.1692969-0.0136725 0.2558594v7.5h28v-7.5c0-1.385-1.115-2.5-2.5-2.5z" style="fill:#d4c9c3"/>
 <path d="m7.1660156 8.000019c-0.743485 1.595078-1.1660156 3.399999-1.1660156 5.3125 0 6.427329 4.887123 11.657922 10.75 11.685547l4.25 2e-3v-17h-4v13c-4-0.03321-7-3.999982-7-7.6875 0-2.312482 0.56664-3.961531 1.75-5.3125zm14.833984 4v4l3-0.03125 4-3.96875zm3 5-3 0.03125v3.96875h7z" style="opacity:.2"/>
 <path d="m22 16.031251v3.968768h7l-4-4z" style="fill:#706053"/>
 <path d="m22 11.000019v4l3-0.03127 4-3.968732z" style="fill:#706053"/>
 <path d="m7.165568 7c-0.743485 1.5950783-1.165568 3.4-1.165568 5.312501 0 6.427329 4.887124 11.658493 10.750001 11.686118l4.249999 0.0014v-17h-4v13c-4-0.03321-7-4-7-7.687518 0-2.312482 0.56664-3.9615321 1.75-5.312501z" style="fill:#452d19"/>
 <path d="m4.4352791 3.0008134c-1.385 0-2.5 1.115-2.5 2.5v1c0-1.385 1.115-2.5 2.5-2.5h23c1.385 0 2.5 1.115 2.5 2.5v-1c0-1.385-1.115-2.5-2.5-2.5z" style="fill:#ffffff;opacity:.2"/>
</svg>
