<svg width="32" height="32" version="1.1" xmlns="http://www.w3.org/2000/svg">
 <path d="m4.5 4c-1.385 0-2.5 1.115-2.5 2.5v8.5c0 7.731986 6.2680135 14 14 14h11.5c1.385 0 2.5-1.115 2.5-2.5v-20c0-1.385-1.115-2.5-2.5-2.5zm0 0c-1.385 0-2.5 1.115-2.5 2.5v8.5c0 7.731986 6.2680135 14 14 14h11.5c1.385 0 2.5-1.115 2.5-2.5v-20c0-1.385-1.115-2.5-2.5-2.5z" style="opacity:.2"/>
 <path d="m4.5 3c-1.385 0-2.5 1.115-2.5 2.5v8.5c0 7.731986 6.2680135 14 14 14h11.5c1.385 0 2.5-1.115 2.5-2.5v-20c0-1.385-1.115-2.5-2.5-2.5zm0 0c-1.385 0-2.5 1.115-2.5 2.5v8.5c0 7.731986 6.2680135 14 14 14h11.5c1.385 0 2.5-1.115 2.5-2.5v-20c0-1.385-1.115-2.5-2.5-2.5z" style="fill:#c1b4a2"/>
 <path d="m4.5 4c-0.0865625 0-0.1716125 0.0051672-0.2558594 0.0136719-0.1684936 0.0170093-0.3315259 0.049104-0.4882812 0.0976562-0.6270215 0.194209-1.1479004 0.6284473-1.4550782 1.1953125-0.038397 0.070858-0.073926 0.1439258-0.1054687 0.21875-0.031543 0.074824-0.059708 0.1520911-0.083984 0.2304688-0.024276 0.078378-0.04395 0.1567627-0.060547 0.2382812-0.016597 0.081519-0.028605 0.1657532-0.037109 0.25-0.0085053 0.0842469-0.0136725 0.1692969-0.0136725 0.2558594v7.5h28v-7.5c0-1.385-1.115-2.5-2.5-2.5z" style="opacity:.1"/>
 <path d="m4.5 3c-0.0865625 0-0.1716125 0.0051672-0.2558594 0.0136719-0.1684936 0.0170093-0.3315259 0.049104-0.4882812 0.0976562-0.6270215 0.194209-1.1479004 0.6284473-1.4550782 1.1953125-0.0383972 0.0708582-0.0739257 0.1439258-0.1054687 0.21875s-0.0597083 0.1520911-0.0839844 0.2304688-0.0439502 0.1567627-0.0605469 0.2382812c-0.0165966 0.0815186-0.0286047 0.1657532-0.0371093 0.25-0.0085047 0.0842469-0.0136719 0.1692969-0.0136719 0.2558594v7.5h28v-7.5c0-1.385-1.115-2.5-2.5-2.5h-23z" style="fill:#d8cab6"/>
 <path d="m4.5 3c-1.385 0-2.5 1.115-2.5 2.5v1c0-1.385 1.115-2.5 2.5-2.5h23c1.385 0 2.5 1.115 2.5 2.5v-1c0-1.385-1.115-2.5-2.5-2.5z" style="fill:#ffffff;opacity:.2"/>
 <path d="m7.1660156 7.999986c-0.743485 1.595078-1.1660156 3.399999-1.1660156 5.3125 0 6.427329 4.887123 11.659889 10.75 11.687514l4.25 3.3e-5v-17h-4v13c-4-0.03326-7-4.000029-7-7.687547 0-2.312482 0.56664-3.961531 1.75-5.3125zm14.833984 4.000014v4h3l4-4zm3 5h-3v4h7z" style="opacity:.2"/>
 <path d="m22 16v4h7l-4-4z" style="fill:#b56c22"/>
 <path d="m22 11v4h3l4-4z" style="fill:#b56c22"/>
 <path d="m7.165568 6.999967c-0.743485 1.5950783-1.165568 3.4-1.165568 5.312501 0 6.427329 4.887124 11.659907 10.750001 11.687532l4.249999-1.4e-5v-17h-4v13c-4-0.03321-7-4-7-7.687518 0-2.312482 0.56664-3.9615321 1.75-5.312501z" style="fill:#452d19"/>
</svg>
