<svg width="48" height="48" version="1.1" xmlns="http://www.w3.org/2000/svg">
 <path d="m10 5c-1.108 0-2 0.892-2 2v36c0 1.108 0.892 2 2 2h28c1.108 0 2-0.892 2-2v-26l-12-12z" style="opacity:.2"/>
 <path d="m10 4c-1.108 0-2 0.892-2 2v36c0 1.108 0.892 2 2 2h28c1.108 0 2-0.892 2-2v-26l-10-2-2-10z" style="fill:#e4e4e4"/>
 <path d="m40 17-12-12v10c0 1.108 0.892 2 2 2z" style="opacity:.2"/>
 <path d="m40 16-12-12v10c0 1.108 0.892 2 2 2z" style="fill:#fafafa"/>
 <path d="m10 4c-1.108 0-2 0.892-2 2v1c0-1.108 0.892-2 2-2h18v-1h-18z" style="fill:#ffffff;opacity:.2"/>
 <path d="m24 18c-7.425593 4.287169-11.999963 12.21082-12 20.785156 7.425626 4.287188 16.574374 4.287188 24 0-3.8e-5 -8.574336-4.574405-16.497987-12-20.785156zm4.736328 8.757812c2.126606 1.227797 0.849546 7.268592-3.060547 10.572266 0.238273 0.339233 0.371092 0.747241 0.371094 1.175781-2.127513 1.228325-6.719216-2.898917-7.625-7.935547-0.412963 0.03676-0.833912-0.05134-1.205078-0.265624 9e-6 -2.455796 5.868955-4.371242 10.685547-2.636719 0.174645-0.376019 0.462817-0.695864 0.833984-0.910157z" style="opacity:.2"/>
 <path d="m24 17c-7.425593 4.287169-11.999963 12.21082-12 20.785156 7.425626 4.287188 16.574374 4.287188 24 0-3.8e-5 -8.574336-4.574405-16.497987-12-20.785156zm4.736328 8.757812c2.126606 1.227797 0.849546 7.268592-3.060547 10.572266 0.238273 0.339233 0.371092 0.747241 0.371094 1.175781-2.127513 1.228325-6.719216-2.898917-7.625-7.935547-0.412963 0.036761-0.833912-0.051337-1.205078-0.265624 9e-6 -2.455796 5.868955-4.371242 10.685547-2.636719 0.174645-0.376019 0.462817-0.695864 0.833984-0.910157z" style="fill:#5330a0"/>
</svg>
