<svg width="48" height="48" version="1" xmlns="http://www.w3.org/2000/svg">
 <path d="m10 5c-1.108 0-2 0.892-2 2v36c0 1.108 0.892 2 2 2h28c1.108 0 2-0.892 2-2v-26l-11-1-1-11z" style="opacity:.2"/>
 <path d="m10 4c-1.108 0-2 0.892-2 2v36c0 1.108 0.892 2 2 2h28c1.108 0 2-0.892 2-2v-26l-11-1-1-11z" style="fill:#4caac2"/>
 <path d="m10 4c-1.108 0-2 0.892-2 2v1c0-1.108 0.892-2 2-2h18l11 11h1l-12-12z" fill="#fff" style="opacity:.1"/>
 <path d="m28 5v10c0 1.1046 0.89543 2 2 2h10z" style="opacity:.2"/>
 <path d="m28 4v10c0 1.1046 0.89543 2 2 2h10l-12-12z" style="fill:#5bc6e2"/>
 <path d="m27.5 34.5s0 2-4 2c-3.75 0-4-4-4-7 1e-6 -3 0.25-7 4-7 4 0 4 2 4 2" style="fill:none;stroke-linecap:square;stroke-width:3;stroke:#ffffff"/>
</svg>
