<svg width="64" height="64" version="1.1" xmlns="http://www.w3.org/2000/svg">
 <path d="m12.75 5c-1.5235 0-2.75 1.2488-2.75 2.8v50.4c0 1.55008 1.2265 2.8 2.75 2.8h38.5c1.5224 0 2.75-1.24992 2.75-2.8v-35.2l-14-4-4-14z" style="opacity:.2"/>
 <path d="m12.75 4c-1.5235 0-2.75 1.2488-2.75 2.8v50.4c0 1.55008 1.2265 2.8 2.75 2.8h38.5c1.5224 0 2.75-1.24992 2.75-2.8v-35.2l-14-4-4-14z" style="fill:#e4e4e4"/>
 <path d="m54 23-18-18v15.1875c0 1.55925 1.2555 2.8125 2.8125 2.8125z" style="opacity:.2"/>
 <path d="m54 22-18-18v15.1875c0 1.55925 1.2555 2.8125 2.8125 2.8125z" style="fill:#fafafa"/>
 <path d="m12.75 4c-1.5235 0-2.75 1.2495812-2.75 2.8007812v1c0-1.5511999 1.2265-2.8007812 2.75-2.8007812h23.25v-1h-23.25z" style="fill:#ffffff;opacity:.2"/>
 <path d="m32 25c-9.900791 5.716225-15.99995 16.280443-16 27.712891 9.900835 5.71625 22.099165 5.71625 32 0-5.1e-5 -11.432448-6.099207-21.996666-16-27.712891zm6.101562 11.6875c2.73171 1.577154 1.091027 9.338334-3.93164 13.582031 0.306071 0.435758 0.478513 0.961242 0.478516 1.511719-2.732874 1.577832-8.633362-3.725565-9.796876-10.195312-0.530467 0.04722-1.072051-0.06653-1.548828-0.341797 1.3e-5 -3.154567 7.539461-5.614783 13.726563-3.386719 0.224338-0.483011 0.595489-0.894655 1.072265-1.169922z" style="opacity:.2"/>
 <path d="m32 24c-9.900791 5.716225-15.99995 16.280443-16 27.712891 9.900835 5.71625 22.099165 5.71625 32 0-5.1e-5 -11.432448-6.099207-21.996666-16-27.712891zm6.101562 11.6875c2.73171 1.577154 1.091027 9.338334-3.93164 13.582031 0.306071 0.435758 0.478513 0.961242 0.478516 1.511719-2.732874 1.577832-8.633362-3.725565-9.796876-10.195312-0.530467 0.04722-1.072051-0.066534-1.548828-0.341797 1.3e-5 -3.154567 7.539461-5.614783 13.726563-3.386719 0.224338-0.483011 0.595489-0.894655 1.072265-1.169922z" style="fill:#5330a0"/>
</svg>
