<svg width="64" height="64" version="1.1" xmlns="http://www.w3.org/2000/svg">
 <path d="m12.75 5c-1.5235 0-2.75 1.2488-2.75 2.8v50.4c0 1.55008 1.2265 2.8 2.75 2.8h38.5c1.5224 0 2.75-1.24992 2.75-2.8v-35.2l-14-4-4-14z" style="opacity:.2"/>
 <path d="m12.75 4c-1.5235 0-2.75 1.2488-2.75 2.8v50.4c0 1.55008 1.2265 2.8 2.75 2.8h38.5c1.5224 0 2.75-1.24992 2.75-2.8v-35.2l-14-4-4-14z" style="fill:#4caac2"/>
 <path d="m54 23-18-18v15.1875c0 1.55925 1.2555 2.8125 2.8125 2.8125z" style="opacity:.2"/>
 <path d="m54 22-18-18v15.1875c0 1.55925 1.2555 2.8125 2.8125 2.8125z" style="fill:#5bc6e2"/>
 <path d="m12.75 4c-1.5235 0-2.75 1.2495812-2.75 2.8007812v1c0-1.5511999 1.2265-2.8007812 2.75-2.8007812h23.25v-1h-23.25z" style="fill:#ffffff;opacity:.1"/>
 <path d="m 38,34 v -0.142856 c 0,0 0,-2.857143 -6.000284,-2.857143 -5.792685,0 -5.999714,5.714285 -5.999716,10 C 26,45.285715 26.207031,51 31.999716,51 38,51 38,48.142858 38,48.142858 V 48" style="fill:none;stroke-linecap:square;stroke-width:4.00001;stroke:#ffffff"/>
</svg>
