<svg width="24" height="24" version="1.1" xmlns="http://www.w3.org/2000/svg">
 <circle cx="11.5" cy="12" r="9.5" style="opacity:.2"/>
 <circle cx="11.5" cy="11.5" r="9.5" style="fill:#e4e4e4"/>
 <path d="M 11.5,2 A 9.5,9.5 0 0 0 2,11.5 9.5,9.5 0 0 0 2.015625,11.75 9.5,9.5 0 0 1 11.5,2.5 9.5,9.5 0 0 1 20.984375,11.75 9.5,9.5 0 0 0 21,11.5 9.5,9.5 0 0 0 11.5,2 Z" style="fill:#ffffff;opacity:.2"/>
 <circle cx="11.5" cy="10.5" r=".5" style="fill:#333333"/>
 <path d="m11.5 7.5c-0.626794 0-1 0.5-1 0.5l-5.4003909 5.300781s-0.683964 0.57288-0.2988282 1.09961c0.3851361 0.52673 1.0996094 0.09961 1.0996094 0.09961l4.0996096-4a1.5 1.5 0 0 1 1.5000001-1.5 1.5 1.5 0 0 1 1.5 1.5l4.099609 4s0.714474 0.427122 1.09961-0.09961c0.385136-0.52673-0.298828-1.09961-0.298828-1.09961l-5.400391-5.300781s-0.373206-0.5-1-0.5z" style="fill:#333333"/>
 <path d="m8.8 13 1.3 1s0.755437-1 1.4-1 1.4 1 1.4 1l1.3-1-1.5-1.5c-0.284366 0.317931-0.773451 0.499759-1.2 0.5-0.426549-2.41e-4 -0.915634-0.182069-1.2-0.5z" style="fill:#333333"/>
</svg>
