<svg width="32" height="32" version="1.1" xmlns="http://www.w3.org/2000/svg">
 <path d="m6.375 3c-0.76175 0-1.375 0.6244-1.375 1.4v25.2c0 0.77504 0.61325 1.4 1.375 1.4h19.25c0.7612 0 1.375-0.62496 1.375-1.4v-17.6l-7-2-2-7z" style="opacity:.2"/>
 <path d="m6.375 2c-0.76175 0-1.375 0.6244-1.375 1.4v25.2c0 0.77504 0.61325 1.4 1.375 1.4h19.25c0.7612 0 1.375-0.62496 1.375-1.4v-17.6l-7-2-2-7z" style="fill:#e4e4e4"/>
 <path d="m27 12-9-9v7.59375c0 0.779625 0.62775 1.40625 1.40625 1.40625z" style="opacity:.2"/>
 <path d="m27 11-9-9v7.59375c0 0.779625 0.62775 1.40625 1.40625 1.40625z" style="fill:#fafafa"/>
 <path d="M 6.375,2 C 5.61325,2 5,2.6247906 5,3.4003906 v 1 C 5,3.6247906 5.61325,3 6.375,3 H 18 V 2 Z" style="fill:#ffffff;opacity:.2"/>
 <path d="m16 13c-4.950396 2.858112-7.999975 8.139245-8 13.855469 4.950417 2.858125 11.049582 2.858125 16 0-2.5e-5 -5.716224-3.049603-10.997357-8-13.855469zm3.158203 5.837891c1.417737 0.818532 0.565713 4.846379-2.041015 7.048828 0.158849 0.226155 0.248045 0.499462 0.248046 0.785156-1.418342 0.818883-4.480128-1.933263-5.083984-5.291016-0.275308 0.02451-0.557244-0.03487-0.804688-0.177734 5e-6 -1.637197 3.91394-2.914162 7.125-1.757813 0.116431-0.250679 0.309196-0.464558 0.556641-0.607421z" style="opacity:.2"/>
 <path d="m16 12c-4.950396 2.858112-7.999975 8.139245-8 13.855469 4.950417 2.858125 11.049582 2.858125 16 0-2.5e-5 -5.716224-3.049603-10.997357-8-13.855469zm3.158203 5.837891c1.417737 0.818532 0.565713 4.846379-2.041015 7.048828 0.158849 0.226155 0.248045 0.499462 0.248046 0.785156-1.418342 0.818883-4.480128-1.933263-5.083984-5.291016-0.275308 0.02451-0.557244-0.034872-0.804688-0.177734 5e-6 -1.637197 3.91394-2.914162 7.125-1.757813 0.116431-0.250679 0.309196-0.464558 0.556641-0.607421z" style="fill:#5330a0"/>
</svg>
