<svg width="22" height="22" version="1.1" xmlns="http://www.w3.org/2000/svg">
 <path d="m2.5 1.5h17c0.831 0 1.5 0.669 1.5 1.5v17c0 0.831-0.669 1.5-1.5 1.5h-17c-0.831 0-1.5-0.669-1.5-1.5v-17c0-0.831 0.669-1.5 1.5-1.5z" style="fill-rule:evenodd;opacity:.2"/>
 <path d="m2.5 1h17c0.831 0 1.5 0.669 1.5 1.5v17c0 0.831-0.669 1.5-1.5 1.5h-17c-0.831 0-1.5-0.669-1.5-1.5v-17c0-0.831 0.669-1.5 1.5-1.5z" style="fill-rule:evenodd;fill:#37528c"/>
 <path d="m2.5 1c-0.831 0-1.5 0.669-1.5 1.5v0.5c0-0.831 0.669-1.5 1.5-1.5h17c0.831 0 1.5 0.669 1.5 1.5v-0.5c0-0.831-0.669-1.5-1.5-1.5h-17z" style="fill-rule:evenodd;fill:#ffffff;opacity:.1"/>
 <path d="m9.0390625 3.5c-0.673077 0-1.0955523 0.319732-1.4140625 0.6972656-0.5223235 0.6191157-0.5923441 2.0196907-0.7089844 3.3027344l2.0839844 1h-2.5839844c-0.397125 0-1.4403328 0.2596761-1.5390625 1.3457031l-0.8769531 9.6542969h4l0.7265625-8h1.5449225c0.03456-0.0012 0.06734-0.0051 0.0957-0.01367 0.0065-2e-3 0.01329-0.0052 0.01953-0.0078 0.0035-0.0015 0.0064-0.0023 0.0098-0.0039 0.0029-0.0014 5e-3 -0.0024 0.0078-0.0039 0.0019-1e-3 4e-3 -0.0028 0.0059-0.0039 0.0043-0.0026 0.0095-0.0048 0.01367-0.0078l2e-3 -2e-3c0.0048-0.0036 9e-3 -0.0075 0.01367-0.01172 0.0044-0.0039 0.0094-0.0092 0.01367-0.01367 0.0012-0.0013 0.0027-0.0026 0.0039-0.0039 0.0033-0.0036 0.0065-0.0077 0.0098-0.01172 0.0013-0.0017 0.0045-6e-3 0.0059-0.0078 0.0052-7e-3 0.01054-0.01336 0.01563-0.02148 0.01029-0.01645 0.01952-0.0351 0.0293-0.05664 0.02423-0.05319 0.04738-0.12312 0.07031-0.214844l0.419747-4.615256h3.355469l-0.363281 4h4l0.486328-5.34375c0.0049-0.054228 0.0098-0.1074754 0.0098-0.1621094-3.4e-5 -0.702412-0.587873-1.4941406-1.539097-1.4941406z" style="fill-rule:evenodd;opacity:.2"/>
 <path d="m9.0386055 3c-0.673077 0-1.0956348 0.3193034-1.414145 0.696837-0.5223235 0.6191157-0.5911822 2.0201193-0.7078225 3.303163l2.083362 1h-2v3h3.203353c0.192309 0 0.288461 0 0.384616-0.384616l0.41958-4.615384h3.356087l-0.363636 4h4l0.485746-5.343201c0.0049-0.054228 0.01047-0.108389 0.01047-0.163023 0-0.702412-0.587237-1.493776-1.538461-1.493776z" style="fill-rule:evenodd;fill:#ffad33"/>
 <path d="m7 8v3h3.271484c0.148551-0.005258 0.232271-0.048227 0.316407-0.384766l0.085937-0.9414059-1.673828-1.6738281h-2z" style="fill-rule:evenodd;fill:#966214"/>
 <path d="M 4.8776225,9.346153 4,19 H 8 L 9,8 6.4160835,8 C 6.0189585,8 4.9763522,8.260126 4.8776225,9.346153 Z" style="fill-rule:evenodd;fill:#ffad33"/>
 <path d="M 6.4160156 8 C 6.0188906 8 4.9756828 8.2596761 4.8769531 9.3457031 L 4 19 L 4.2949219 19 L 5.1269531 9.8457031 C 5.2256828 8.7596761 6.2688906 8.5 6.6660156 8.5 L 8.9550781 8.5 L 9 8 L 6.4160156 8 z " style="fill-rule:evenodd;fill:#ffffff;opacity:.2"/>
</svg>
