<svg width="22" height="22" version="1.1" xmlns="http://www.w3.org/2000/svg">
 <path d="m13.985498 18.642287 0.489707-0.102346c0.611277-0.127755 1.159198 0.06099 1.22852 0.423192l0.289036 1.510179c0.06932 0.362204-0.366981 0.756647-0.978259 0.884401l-0.489706 0.102347c-0.611279 0.127755-1.1592-0.06099-1.228523-0.423193l-0.289035-1.51018c-0.06932-0.362202 0.366981-0.756645 0.97826-0.8844z" style="opacity:.2"/>
 <path d="m13.985498 18.142287 0.489706-0.102347c0.611279-0.127754 1.1592 0.06099 1.228522 0.423192l0.289036 1.51018c0.06932 0.362203-0.366982 0.756645-0.97826 0.8844l-0.489707 0.102346c-0.611278 0.127755-1.159199-0.06099-1.228521-0.423192l-0.289036-1.510179c-0.06932-0.362203 0.366982-0.756646 0.97826-0.8844z" style="fill:#4f4f4f"/>
 <path d="m16.493695 12.781192 0.625653-0.23861c0.450594-0.171847 1.00271 0.191725 1.237926 0.815182l0.537801 1.425475c0.235216 0.623458 0.06183 1.263721-0.388769 1.435568l-0.625653 0.23861c-0.450595 0.171847-1.00271-0.191723-1.237927-0.815181l-0.5378-1.425476c-0.235217-0.623457-0.06183-1.263721 0.388769-1.435568z" style="opacity:.2"/>
 <path d="m16.493695 12.281193 0.625652-0.23861c0.450595-0.171847 1.00271 0.191724 1.237927 0.815181l0.5378 1.425476c0.235217 0.623458 0.06183 1.263721-0.388769 1.435568l-0.625652 0.23861c-0.450594 0.171847-1.00271-0.191724-1.237926-0.815181l-0.537801-1.425476c-0.235216-0.623458-0.06182-1.263721 0.388769-1.435568z" style="fill:#4f4f4f"/>
 <path d="M 7.6666665,10.5 H 14.333333 C 15.810667,10.5 17,12.411429 17,14.785715 v 1.42857 C 17,18.588571 15.810667,20.5 14.333333,20.5 H 7.6666665 C 6.1893333,20.5 5,18.588571 5,16.214285 v -1.42857 C 5,12.411429 6.1893333,10.5 7.6666665,10.5 Z" style="opacity:.2"/>
 <path d="M 7.6666665,10 H 14.333333 C 15.810667,10 17,11.911429 17,14.285715 v 1.42857 C 17,18.088571 15.810667,20 14.333333,20 H 7.6666665 C 6.1893333,20 5,18.088571 5,15.714285 v -1.42857 C 5,11.911429 6.1893333,10 7.6666665,10 Z" style="fill:#cccccc"/>
 <path d="m4.8338005 12.536522 0.6412241 0.22145c0.4618095 0.159488 0.6548966 0.793799 0.4329306 1.422223l-0.5075036 1.436829c-0.221966 0.628423-0.7724423 1.005941-1.2342518 0.846453l-0.6412241-0.22145c-0.4618093-0.159488-0.6548963-0.7938-0.4329303-1.422223l0.5075036-1.436829c0.221966-0.628423 0.7724422-1.005941 1.2342515-0.846453z" style="opacity:.2"/>
 <path d="m4.8338004 12.036522 0.641224 0.22145c0.4618094 0.159488 0.6548969 0.7938 0.4329309 1.422223l-0.5075035 1.436829c-0.221966 0.628423-0.7724427 1.005941-1.2342522 0.846453l-0.6412239-0.22145c-0.4618095-0.159488-0.6548964-0.793799-0.4329304-1.422223l0.5075035-1.436829c0.221966-0.628423 0.7724422-1.005941 1.2342516-0.846453z" style="fill:#4f4f4f"/>
 <path d="m7.5065627 18.535068 0.4932382 0.09595c0.6156867 0.119776 1.0589474 0.509465 0.9938587 0.873742l-0.271383 1.51883c-0.065089 0.364277-0.6131496 0.561115-1.2288363 0.44134l-0.4932382-0.09595c-0.6156877-0.119776-1.0589483-0.509465-0.9938595-0.873743l0.271383-1.518829c0.065089-0.364278 0.6131494-0.561115 1.2288371-0.44134z" style="opacity:.2"/>
 <path d="m7.5065617 18.035068 0.4932383 0.095954c0.6156866 0.119775 1.0589484 0.509464 0.9938594 0.873743l-0.2713828 1.518828c-0.065089 0.364279-0.6131506 0.561116-1.2288372 0.44134l-0.4932383-0.095954c-0.6156865-0.119775-1.0589478-0.509463-0.9938588-0.873742l0.2713828-1.518828c0.0650889-0.364279 0.6131501-0.561117 1.2288366-0.441341z" style="fill:#4f4f4f"/>
 <path d="m18.611329 6.5000002c-0.248226 0.012954-0.469176 0.232953-0.535157 0.5624996l-0.05664 0.2871093c-0.06553 0.3273233 0.04157 0.6610796 0.249997 0.8339869l0.30276 0.8320145c0.15037 0.4147986 0.513852 0.5978659 0.814453 0.4101562l0.277345-0.1738281c0.3006-0.1877097 0.421853-0.6711388 0.271483-1.0859374l-0.373047-1.0292971c-0.08737-0.2410236-0.246815-0.403741-0.423828-0.4609371-0.04504-0.034409-0.09347-0.059789-0.146484-0.078125l-0.205079-0.072266c-0.05855-0.020254-0.1185-0.028385-0.17578-0.025391z" style="opacity:.2"/>
 <path d="m18.748822 6.2277555-0.277611 0.1733537c-0.300602 0.1877102-0.421546 0.6727625-0.271176 1.0875601l0.372545 1.0276747c0.150369 0.4147976 0.513425 0.5976172 0.814026 0.409907l0.277611-0.1733536c0.300601-0.1877097 0.421546-0.6727625 0.271177-1.0875602l-0.372545-1.0276746c-0.150369-0.4147976-0.513426-0.5976167-0.814027-0.4099071z" style="fill:#4f4f4f"/>
 <path d="m18.991848 6.0968532-0.205101-0.07095c-0.31226-0.1080188-0.629021 0.1315502-0.710228 0.5371502l-0.05748 0.2871098c-0.08121 0.4056001 0.104804 0.8190912 0.417063 0.92711l0.205102 0.07095c0.31226 0.1080188 0.629021-0.1315501 0.710228-0.5371502l0.05748-0.2871098c0.08121-0.4056001-0.104804-0.8190911-0.417064-0.92711z" style="fill:#4f4f4f"/>
 <path d="m19 7.5a8 6 0 0 1-8 6 8 6 0 0 1-8-6 8 6 0 0 1 8-6 8 6 0 0 1 8 6z" style="opacity:.2"/>
 <path d="m19 7a8 6 0 0 1-8 6 8 6 0 0 1-8-6 8 6 0 0 1 8-6 8 6 0 0 1 8 6z" style="fill:#cccccc"/>
 <path d="M 11,1 A 8,6 0 0 0 3,7 8,6 0 0 0 3.0078125,7.25 8,6 0 0 1 11,1.5 8,6 0 0 1 18.992188,7.25 8,6 0 0 0 19,7 8,6 0 0 0 11,1 Z" style="fill:#ffffff;opacity:.2"/>
 <path d="m17.5 6.5a6 4.5 0 0 1-6 4.5 6 4.5 0 0 1-6-4.5 6 4.5 0 0 1 6-4.5 6 4.5 0 0 1 6 4.5z" style="fill:#4f4f4f"/>
 <path d="M 11.5,2 A 6,4.5 0 0 0 5.5,6.5 6,4.5 0 0 0 5.50977,6.75 6,4.5 0 0 1 11.5,2.5 6,4.5 0 0 1 17.490234,6.75 6,4.5 0 0 0 17.5,6.5 6,4.5 0 0 0 11.5,2 Z" style="opacity:.2"/>
 <path d="m10 5.5171404a0.75 1.5 0 0 1-0.75 1.5 0.75 1.5 0 0 1-0.75-1.5 0.75 1.5 0 0 1 0.75-1.5 0.75 1.5 0 0 1 0.75 1.5z" style="fill:#e6e6e6"/>
 <path d="m16 5.5a0.75 1.5 0 0 1-0.75 1.5 0.75 1.5 0 0 1-0.75-1.5 0.75 1.5 0 0 1 0.75-1.5 0.75 1.5 0 0 1 0.75 1.5z" style="fill:#e6e6e6"/>
 <path d="m11.5 6.5c-0.277 0-0.5 0.223-0.5 0.5s0.223 0.5 0.5 0.5h0.5v0.5c0 0.277 0.223 0.5 0.5 0.5s0.5-0.223 0.5-0.5v-0.5h0.5c0.277 0 0.5-0.223 0.5-0.5s-0.223-0.5-0.5-0.5h-1z" style="opacity:.2"/>
 <path d="m11.5 6h2c0.277 0 0.5 0.223 0.5 0.5s-0.223 0.5-0.5 0.5h-2c-0.277 0-0.5-0.223-0.5-0.5s0.223-0.5 0.5-0.5z" style="fill:#e6e6e6"/>
 <path d="m12.5 6c0.277 0 0.5 0.223 0.5 0.5v1c0 0.277-0.223 0.5-0.5 0.5s-0.5-0.223-0.5-0.5v-1c0-0.277 0.223-0.5 0.5-0.5z" style="fill:#e6e6e6"/>
 <path d="m3.3886719 6.5c-0.057283-0.00299-0.1172327 0.00514-0.1757813 0.025391l-0.205078 0.072266c-0.0530107 0.0183371-0.1014406 0.0437121-0.1464845 0.0781243-0.1770161 0.0571934-0.3364537 0.2199127-0.4238281 0.4609374l-0.3730468 1.0292969c-0.1503696 0.4147985-0.0291168 0.8982276 0.2714843 1.0859375l0.2773437 0.1738281c0.3006012 0.18771 0.6640837 0.00464 0.8144531-0.4101562l0.3027345-0.8320312c0.2084345-0.1729046 0.3155344-0.5066605 0.2499999-0.8339845l-0.0566406-0.2871093c-0.0659802-0.3295501-0.2869311-0.5495457-0.5351562-0.5625z" style="opacity:.2"/>
 <path d="m3.2511765 6.2277559 0.2776109 0.1733536c0.3006011 0.18771 0.4215457 0.6727618 0.2711762 1.0875603l-0.3725443 1.027674c-0.1503695 0.4147986-0.5134253 0.5976172-0.8140264 0.4099072l-0.2776109-0.1733537c-0.3006011-0.1877099-0.4215458-0.6727618-0.2711763-1.0875604l0.3725444-1.027674c0.1503694-0.4147985 0.5134253-0.597617 0.8140264-0.409907z" style="fill:#4f4f4f"/>
 <path d="m3.0081523 6.0968533 0.2051024-0.07095c0.3122591-0.1080192 0.6290201 0.1315499 0.7102265 0.53715l0.057483 0.2871098c0.081206 0.4056001-0.1048036 0.8190912-0.4170627 0.92711l-0.2051024 0.07095c-0.312259 0.1080192-0.62902-0.13155-0.7102264-0.53715l-0.0574831-0.2871099c-0.081206-0.4056 0.1048036-0.8190911 0.4170627-0.9271099z" style="fill:#4f4f4f"/>
</svg>
