<svg width="22" height="22" version="1.1" xmlns="http://www.w3.org/2000/svg">
 <rect x="1" y="2.5" width="20" height="18" rx="2" style="opacity:.2"/>
 <rect x="1" y="2" width="20" height="18" rx="2" style="fill:#4f4f4f"/>
 <path d="m1 11v7c0 1.108 0.892 2 2 2h16c1.108 0 2-0.892 2-2v-7h-20z" style="fill:#636363"/>
 <rect x="1" y="11" width="20" height=".5" style="fill:#ffffff;opacity:.1"/>
 <path d="m3 2c-1.108 0-2 0.892-2 2v0.5c0-1.108 0.892-2 2-2h16c1.108 0 2 0.892 2 2v-0.5c0-1.108-0.892-2-2-2z" style="fill:#ffffff;opacity:.1"/>
 <path d="m5.1464844 5.5c-0.8265072 1.125938-1.4663933 2.399999-1.828125 3.75-1.2156689 4.536938 1.1557866 8.2305 5.2890625 8.25h2.5000001l3.216797-12h-3l-2.402344 8.964844c-2.1671431-0.306505-3.3232301-2.528833-2.6035156-5.214844 0.3933328-1.467938 1.270492-2.796375 2.3613281-3.75zm9.3730466 3-0.804687 3h2l3.804687-3zm-1.072265 4-0.802735 3h5l-2.197265-3z" style="opacity:.2"/>
 <path d="m5.1464844 5c-0.8265072 1.125938-1.4663933 2.399999-1.828125 3.75-1.2156689 4.536938 1.1557866 8.2305 5.2890625 8.25h2.5000001l3.216797-12h-3l-2.402344 8.964844c-2.1671431-0.306505-3.3232301-2.528833-2.6035156-5.214844 0.3933328-1.467938 1.270492-2.796375 2.3613281-3.75h-3.5332031zm9.3730466 3-0.804687 3h2l3.804687-3h-5zm-1.072265 4-0.802735 3h5l-2.197265-3h-2z" style="fill:#f4f4f4"/>
</svg>
