<svg width="16" height="16" version="1.1" xmlns="http://www.w3.org/2000/svg">
 <circle cx="7.5" cy="8.5" r="7.5" style="fill:#e4e4e4"/>
 <path d="m7.5 4.8c-0.2950284 0-0.4979812 0.199192-0.4979812 0.199192l-4.8802153 4.9817517s-0.2740578 0.4229323 0 0.6971723c0.2740588 0.274239 0.5995302 0 0.5995302 0l3.2847229-3.1890246c0-0.8254595 0.6690329-1.4939396 1.4939434-1.4939396 0.8249121-1e-7 1.4939435 0.6684801 1.4939435 1.4939396l3.2866755 3.1890246s0.323519 0.274239 0.597577 0c0.274059-0.274241 0-0.6971723 0-0.6971723l-4.8802148-4.9817517s-0.2029517-0.199192-0.4979812-0.199192zm0 2.198923a0.49993403 0.49993274 0 0 0-0.499934 0.4999327 0.49993403 0.49993274 0 0 0 0.499934 0.4999328 0.49993403 0.49993274 0 0 0 0.499934-0.4999328 0.49993403 0.49993274 0 0 0-0.499934-0.4999327zm-0.954952 1.6560272-0.6444464 0.7440405 0.5995304 0.5995287s0.5681645-0.4003367 0.999868-0.4003367c0.4317036 0 0.9998681 0.4003367 0.9998681 0.4003367l0.5995302-0.5995287-0.6444462-0.7440405c-0.2687026 0.2220623-0.6063649 0.3435928-0.9549521 0.3437037-0.3485872-1.109e-4 -0.6862494-0.1216414-0.954952-0.3437037z" style="fill:#333333"/>
</svg>
