<svg width="16" height="16" version="1.1" xmlns="http://www.w3.org/2000/svg">
 <rect width="16" height="16" rx="1.5" ry="1.5" style="fill:#37528c"/>
 <path d="m 6.9007388,2 c -1,0 -1.6539738,0.9958255 -1.7523008,1.993649 L 5,5.5 6.5631,6 H 5 V 8 H 7.288459 C 7.442305,8 7.519228,8 7.596151,7.692307 L 7.7,7 8,5 h 2.75 L 10.5,7 h 2.9998 L 13.9916,3.325439 C 13.9974,3.282262 14,3.238729 14,3.19502 13.999977,2.633091 13.7498,2 12.7498,2 Z" style="fill-rule:evenodd;fill:#ffad33"/>
 <path d="M 5,6 V 8 H 7.3417969 C 7.4606369,7.99579 7.5283955,7.960638 7.5957031,7.6914062 L 7.7,7 6.5631,6 Z" style="fill-rule:evenodd;fill:#966214"/>
 <path d="M 2.923077,7.0283001 2,14 H 5.5 L 6.5631,6 H 4.153846 C 3.836146,6 3.037587,6.163443 2.923077,7.0283001 Z" style="fill-rule:evenodd;fill:#ffad33"/>
</svg>
