<svg width="16" height="16" version="1.1" xmlns="http://www.w3.org/2000/svg">
 <path d="m10.656999 14.094859 0.326471-0.06823c0.407519-0.08517 0.772799 0.04066 0.819014 0.282127l0.192691 1.006787c0.04622 0.241469-0.244654 0.504431-0.652173 0.5896l-0.326471 0.06823c-0.407519 0.08517-0.7728-0.04066-0.819015-0.282128l-0.19269-1.006787c-0.046215-0.241468 0.244654-0.50443 0.652173-0.589599z" style="fill:#4f4f4f"/>
 <path d="m12.32913 9.2108948 0.417101-0.1789577c0.300397-0.1288852 0.668473 0.1437931 0.825285 0.6113866l0.358533 1.0691073c0.156811 0.467592 0.04122 0.947789-0.259179 1.076675l-0.417102 0.178957c-0.300396 0.128886-0.668473-0.143793-0.825284-0.611385l-0.358533-1.069107c-0.156812-0.4675936-0.041218-0.947791 0.259179-1.0766762z" style="fill:#4f4f4f"/>
 <path d="M 5.2222223,7 H 10.777778 C 12.008889,7 13,8.5291428 13,10.428571 v 1.142858 C 13,13.470857 12.008889,15 10.777778,15 H 5.2222223 C 3.9911112,15 3,13.470857 3,11.571429 V 10.428571 C 3,8.5291428 3.9911112,7 5.2222223,7 Z" style="fill:#cccccc"/>
 <path d="m5.0043739 14.023379 0.3288255 0.06397c0.4104578 0.07985 0.7059653 0.339643 0.6625728 0.582495l-0.1809219 1.012552c-0.043392 0.242852-0.4087668 0.374078-0.8192246 0.294228l-0.3288255-0.063971c-0.4104578-0.07985-0.7059652-0.339643-0.6625726-0.582495l0.1809219-1.012553c0.043393-0.242852 0.4087666-0.374076 0.8192244-0.294226z" style="fill:#4f4f4f"/>
 <path d="m3.2225335 9.0273923 0.4274827 0.1660874c0.3078729 0.1196161 0.4365976 0.5953497 0.2886203 1.0666673l-0.3383357 1.077621c-0.1479773 0.471318-0.5149614 0.754456-0.8228343 0.63484l-0.4274827-0.166088c-0.3078729-0.119616-0.4365977-0.595349-0.2886204-1.066666l0.3383357-1.0776219c0.1479773-0.4713174 0.5149615-0.754456 0.8228344-0.6348398z" style="fill:#4f4f4f"/>
 <path d="m13.748823 4.1518375-0.277611 0.1155692c-0.300602 0.12514-0.421546 0.4485079-0.271177 0.7250402l0.372545 0.6851156c0.150369 0.2765327 0.513425 0.3984116 0.814027 0.2732717l0.277611-0.1155693c0.300601-0.1251396 0.421546-0.4485074 0.271176-0.7250401l-0.372545-0.6851156c-0.150369-0.2765324-0.513425-0.3984113-0.814026-0.2732717z" style="fill:#4f4f4f"/>
 <path d="m13.991848 4.0645684-0.205103-0.0473c-0.312258-0.072013-0.62902 0.0877-0.710226 0.3581002l-0.05748 0.1914066c-0.08121 0.2704001 0.104803 0.5460607 0.417062 0.6180731l0.205103 0.0473c0.312259 0.072012 0.62902-0.0877 0.710226-0.3581002l0.05748-0.1914066c0.08121-0.2704-0.104804-0.5460607-0.417063-0.6180731z" style="fill:#4f4f4f"/>
 <path d="M 5.2226562,7 C 4.5860297,7 4.0137812,7.4088431 3.609375,8.0664062 A 6,4.5 0 0 0 8,9.5 6,4.5 0 0 0 12.390625,8.0664062 C 11.986219,7.4088437 11.41397,7 10.777344,7 Z" style="opacity:.2"/>
 <path d="m13.999999 4.5a6 4.5 0 0 1-6 4.5 6 4.5 0 0 1-6-4.5 6 4.5 0 0 1 6-4.5 6 4.5 0 0 1 6 4.5z" style="fill:#cccccc"/>
 <path d="m2.2511767 4.151837 0.2776108 0.1155691c0.3006012 0.12514 0.4215459 0.4485079 0.2711764 0.7250402l-0.3725443 0.685116c-0.1503695 0.2765323-0.5134253 0.3984114-0.8140265 0.2732714l-0.2776108-0.1155691c-0.3006011-0.1251399-0.42154588-0.4485079-0.2711764-0.7250402l0.3725443-0.685116c0.1503695-0.2765323 0.5134254-0.3984113 0.8140265-0.2732714z" style="fill:#4f4f4f"/>
 <path d="m2.0081524 4.0645688 0.2051023-0.0473c0.3122591-0.072013 0.6290201 0.0877 0.7102265 0.3581002l0.057483 0.1914066c0.081206 0.2703998-0.1048035 0.5460605-0.4170626 0.618073l-0.2051023 0.0473c-0.3122591 0.072013-0.6290202-0.0877-0.7102265-0.3581l-0.0574831-0.1914066c-0.0812064-0.2704001 0.1048036-0.5460607 0.4170627-0.6180732z" style="fill:#4f4f4f"/>
 <path d="m12.999996 4.5a4.5 3.5 0 0 1-4.4999998 3.5 4.5 3.5 0 0 1-4.5-3.5 4.5 3.5 0 0 1 4.5-3.5 4.5 3.5 0 0 1 4.4999998 3.5z" style="fill:#4f4f4f"/>
 <path d="m8.249999 3.9999998h1.5c0.1385 0 0.25 0.1115 0.25 0.25v0.5c0 0.1385-0.1115 0.25-0.25 0.25h-1.5c-0.1385 0-0.25-0.1115-0.25-0.25v-0.5c0-0.1385 0.1115-0.25 0.25-0.25z" style="fill:#e6e6e6"/>
 <path d="m9.249999 4.5h0.5c0.1385 0 0.25 0.1115 0.25 0.25v1c0 0.1385-0.1115 0.25-0.25 0.25h-0.5c-0.1385 0-0.25-0.1115-0.25-0.25v-1c0-0.1385 0.1115-0.25 0.25-0.25z" style="fill:#e6e6e6"/>
 <path d="m11.25 3h0.5c0.1385 0 0.25 0.1115 0.25 0.25v1.5c0 0.1385-0.1115 0.25-0.25 0.25h-0.5c-0.1385 0-0.25-0.1115-0.25-0.25v-1.5c0-0.1385 0.1115-0.25 0.25-0.25z" style="fill:#e6e6e6"/>
 <path d="m 6.25,3 h 0.5 C 6.8885,3 7,3.1115 7,3.25 v 1.5 C 7,4.8885 6.8885,5 6.75,5 H 6.25 C 6.1115,5 6,4.8885 6,4.75 V 3.25 C 6,3.1115 6.1115,3 6.25,3 Z" style="fill:#e6e6e6"/>
</svg>
