<svg width="24" height="24" version="1" xmlns="http://www.w3.org/2000/svg">
 <path d="m5 2.5c-0.554 0-1 0.446-1 1v18c0 0.554 0.446 1 1 1h14c0.554 0 1-0.446 1-1v-13l-5.5-0.5-0.5-5.5z" style="opacity:.2"/>
 <path d="m5 2c-0.554 0-1 0.446-1 1v18c0 0.554 0.446 1 1 1h14c0.554 0 1-0.446 1-1v-13l-5.5-0.5-0.5-5.5z" style="fill:#7455d6"/>
 <path d="m5 2c-0.554 0-1 0.446-1 1v0.5c0-0.554 0.446-1 1-1h9l5.5 5.5h0.5l-6-6z" fill="#fff" style="opacity:.1"/>
 <path d="m14 2.5v5c0 0.5523 0.44772 1 1 1h5z" style="opacity:.2"/>
 <path d="m14 2v5c0 0.5523 0.44772 1 1 1h5l-6-6z" style="fill:#8f7aea"/>
 <path d="m14 11v1h-1v1h1v2h-1v1h1v1h1v-1h1v1h1v-1h1v-1h-1v-2h1v-1h-1v-1h-1v1h-1v-1zm1 2h1v2h-1z" style="fill:#ffffff"/>
 <path d="m11.250434 13v-1.178571s0-1.071429-2.2499997-1.071429c-2.2500001 0-2.2499991 2.142857-2.2500001 3.75 0 1.607143 0 3.75 2.2500001 3.75 2.2499997 0 2.2499997-1.071429 2.2499997-1.071429v-1.178571" style="fill:none;stroke-width:1.5;stroke:#ffffff"/>
</svg>
