<svg width="24" height="24" version="1" xmlns="http://www.w3.org/2000/svg">
 <path d="m5 2.5c-0.554 0-1 0.446-1 1v18c0 0.554 0.446 1 1 1h14c0.554 0 1-0.446 1-1v-13l-5.5-0.5-0.5-5.5z" style="opacity:.2"/>
 <path d="m5 2c-0.554 0-1 0.446-1 1v18c0 0.554 0.446 1 1 1h14c0.554 0 1-0.446 1-1v-13l-5.5-0.5-0.5-5.5z" style="fill:#c75bdc"/>
 <path d="m5 2c-0.554 0-1 0.446-1 1v0.5c0-0.554 0.446-1 1-1h9l5.5 5.5h0.5l-6-6z" style="fill:#ffffff;opacity:.1"/>
 <path d="m14 2.5v5c0 0.5523 0.44772 1 1 1h5z" style="opacity:.2"/>
 <path d="m14 2v5c0 0.5523 0.44772 1 1 1h5z" style="fill:#da7cec"/>
 <path d="m11.000065 10.985267v8-3s0-2 1.999971-2c2 0 1.97031 2 1.97031 2l0.02969 2" style="fill:none;stroke-linecap:square;stroke-linejoin:bevel;stroke-width:2;stroke:#ffffff"/>
 <rect x="6" y="17" width="2" height="2" style="fill:#ffffff"/>
</svg>
