<svg width="24" height="24" version="1.1" xmlns="http://www.w3.org/2000/svg">
 <path d="m5 2.5c-0.554 0-1 0.446-1 1v18c0 0.554 0.446 1 1 1h14c0.554 0 1-0.446 1-1v-13l-6-6z" style="opacity:.2"/>
 <path d="m5 2c-0.554 0-1 0.446-1 1v18c0 0.554 0.446 1 1 1h14c0.554 0 1-0.446 1-1v-13l-5-1-1-5z" style="fill:#e4e4e4"/>
 <path d="m20 8.5-6-6v5c0 0.554 0.446 1 1 1z" style="opacity:.2"/>
 <path d="m20 8-6-6v5c0 0.554 0.446 1 1 1z" style="fill:#fafafa"/>
 <path d="m5 2c-0.554 0-1 0.446-1 1v0.5c0-0.554 0.446-1 1-1h9v-0.5z" style="fill:#ffffff;opacity:.2"/>
 <path d="m12 9.5c-3.712797 2.143584-5.999981 6.10541-6 10.392578 3.712813 2.143593 8.287187 2.143593 12 0-1.9e-5 -4.287168-2.287203-8.248994-6-10.392578zm2.466797 4.271484c1.108114 0.639772 0.443688 3.786364-1.59375 5.507813 0.124158 0.176765 0.193358 0.389982 0.193359 0.613281-1.108587 0.640046-3.5006779-1.510322-3.972656-4.134766-0.2151831 0.01915-0.4355024-0.02701-0.6289062-0.138671 4.5e-6 -1.279646 3.0585702-2.276857 5.5683592-1.373047 0.09101-0.195932 0.24019-0.362947 0.433594-0.47461z" style="opacity:.2"/>
 <path d="m12 9c-3.712797 2.143584-5.999981 6.10541-6 10.392578 3.712813 2.143593 8.287187 2.143593 12 0-1.9e-5 -4.287168-2.287203-8.248994-6-10.392578zm2.466797 4.271484c1.108114 0.639772 0.443688 3.786364-1.59375 5.507813 0.124158 0.176765 0.193358 0.389982 0.193359 0.613281-1.108587 0.640046-3.5006779-1.510322-3.972656-4.134766-0.2151831 0.01915-0.4355024-0.02701-0.6289062-0.138671 4.5e-6 -1.279646 3.0585702-2.276857 5.5683592-1.373047 0.09101-0.195932 0.24019-0.362947 0.433594-0.47461z" style="fill:#5330a0"/>
</svg>
